<svg width="52" height="52" viewBox="0 0 52 52" fill="none" xmlns="http://www.w3.org/2000/svg">
<g filter="url(#filter0_d_2384_2958)">
<g clip-path="url(#clip0_2384_2958)">
<rect x="-4.67188" y="-1.16406" width="61" height="61" fill="white"/>
<path d="M6.01055 21.1562V46.0126H46.0105V21.1562C39.546 22.485 32.86 23.1705 26.0053 23.1705C19.1505 23.1705 12.4645 22.4745 6 21.1562H6.01055Z" fill="url(#paint0_linear_2384_2958)"/>
<path d="M19.8025 17.8226C20.372 17.4008 20.0556 16.7997 19.5283 16.9368C19.0854 17.0528 19.001 17.7594 19.001 18.1496C19.001 18.2972 18.8428 18.2866 18.8428 18.2866H18.5792C18.3261 18.2866 18.1046 18.1285 18.0097 17.8965C17.7672 17.2743 17.5035 16.5782 17.3875 16.3146C17.145 18.0757 16.5966 18.7085 15.3944 18.7085C14.8038 18.7085 14.3925 18.487 14.15 18.1496C14.0234 17.9597 14.0234 17.791 14.0234 17.791C14.0234 17.4641 14.2871 17.211 14.614 17.2004C14.7722 17.2004 14.8776 17.2426 15.0464 17.3903C15.0464 17.3903 15.1835 17.5168 15.3733 17.5063C15.9217 17.4641 16.0799 16.2197 16.3435 14.5956C16.3857 14.332 16.565 14.0262 17.0079 14.0262C17.2715 14.0262 17.4613 14.1316 17.5879 14.3531L18.6741 16.1986L19.7603 14.332C19.8763 14.1316 20.0661 14.0156 20.3298 14.0156C20.6883 14.0156 20.9731 14.2687 20.9731 14.5851V17.7066C20.9731 18.023 20.6883 18.2761 20.3298 18.2761H19.3279C19.3279 18.2761 19.1381 18.2656 19.3807 18.1074L19.8131 17.8015L19.8025 17.8226Z" fill="#09CCBD"/>
<path d="M22.2269 18.2945C21.8578 18.2945 21.5625 17.9992 21.5625 17.6301V14.6878C21.5625 14.3187 21.8578 14.0234 22.2269 14.0234C22.596 14.0234 22.8913 14.3187 22.8913 14.6878V17.6301C22.8913 17.9992 22.596 18.2945 22.2269 18.2945Z" fill="#09CCBD"/>
<path d="M32.6566 18.2945C32.2875 18.2945 31.9922 17.9992 31.9922 17.6301V14.6878C31.9922 14.3187 32.2875 14.0234 32.6566 14.0234C33.0257 14.0234 33.321 14.3187 33.321 14.6878V17.6301C33.321 17.9992 33.0257 18.2945 32.6566 18.2945Z" fill="#09CCBD"/>
<path d="M31.0614 14.0391H28.3617C28.0242 14.0391 27.75 14.3133 27.75 14.6507C27.75 14.9882 28.0242 15.2624 28.3617 15.2624H29.0471V17.6457C29.0471 18.0148 29.3424 18.3101 29.7115 18.3101C30.0806 18.3101 30.3759 18.0148 30.3759 17.6457V15.2624H31.0614C31.3988 15.2624 31.673 14.9882 31.673 14.6507C31.673 14.3133 31.3988 14.0391 31.0614 14.0391Z" fill="#09CCBD"/>
<path d="M25.5408 17.8965C25.583 18.1285 25.7201 18.2867 25.9415 18.2867H26.743C27.1121 18.2867 27.4074 17.9914 27.4074 17.6223V14.68C27.4074 14.3109 27.1121 14.0156 26.743 14.0156C26.3739 14.0156 26.0786 14.3109 26.0786 14.68V16.6626L24.7288 14.3636C24.6128 14.1527 24.4019 14.0156 24.1488 14.0156C23.7797 14.0156 23.4844 14.3109 23.4844 14.68V17.6223C23.4844 17.9914 23.7797 18.2867 24.1488 18.2867H25.1822C25.1822 18.2867 25.2772 18.2867 25.2244 18.1706C25.2244 18.1706 25.0873 17.9597 24.7393 17.7383C24.7393 17.7383 24.2331 17.4641 24.328 16.9473C24.328 16.9473 24.3808 16.5571 24.8026 16.631C24.8026 16.631 25.235 16.7048 25.4459 17.4324C25.4459 17.4324 25.5092 17.6012 25.5513 17.8965" fill="#09CCBD"/>
<path d="M37.3898 12.9609C37.0629 12.9609 36.7993 13.2246 36.7993 13.5515C36.7993 13.8257 36.5778 14.0366 36.3142 14.0366H34.2367C33.8992 14.0366 33.625 14.3108 33.625 14.6483C33.625 14.9857 33.8992 15.2599 34.2367 15.2599H34.8694V17.6432C34.8694 18.0123 35.1647 18.3076 35.5338 18.3076C35.9029 18.3076 36.1982 18.0123 36.1982 17.6432V15.2705H36.2825C37.2211 15.2705 37.9804 14.5112 37.9804 13.5726C37.9804 13.2351 37.7167 12.9715 37.3898 12.9715" fill="#09CCBD"/>
<path d="M11.4515 30.8465C11.4515 29.8447 11.8101 29.0643 12.5377 28.4948C13.2654 27.9254 14.2672 27.6406 15.5327 27.6406C16.176 27.6406 16.7982 27.7039 17.3993 27.8304C18.0004 27.957 18.475 28.1257 18.8335 28.3366C19.2976 28.6108 19.5296 28.9483 19.5296 29.3279C19.5296 29.5705 19.4452 29.8236 19.287 30.1083C19.1288 30.3825 18.939 30.604 18.7175 30.7411C18.5488 30.5618 18.2852 30.3931 17.9477 30.2454C17.6102 30.0978 17.2306 29.9712 16.8088 29.8869C16.3869 29.792 15.9757 29.7498 15.5644 29.7498C14.4571 29.7498 13.9087 30.0661 13.9087 30.6989C13.9087 30.9204 14.0036 31.0996 14.1934 31.2262C14.3832 31.3527 14.7207 31.4687 15.1847 31.5531L16.6295 31.8167C17.8528 32.0277 18.7175 32.3757 19.2343 32.8713C19.751 33.367 20.0041 34.0208 20.0041 34.8539C20.0041 35.8663 19.6245 36.6572 18.8546 37.2162C18.0848 37.7856 17.0302 38.0704 15.6698 38.0704C15.3007 38.0704 14.9 38.0387 14.4465 37.9649C13.9931 37.9016 13.5501 37.8067 13.1072 37.6907C12.6643 37.5747 12.2741 37.4482 11.9261 37.3111C11.5781 37.174 11.325 37.0263 11.1562 36.8892L12.1475 34.9805C12.3796 35.1386 12.6959 35.2863 13.1072 35.4234C13.5185 35.571 13.9509 35.687 14.4254 35.7714C14.8894 35.8558 15.3113 35.8979 15.6909 35.8979C16.3026 35.8979 16.756 35.8241 17.0302 35.6765C17.3044 35.5288 17.4521 35.2968 17.4521 34.9699C17.4521 34.7168 17.3466 34.527 17.1462 34.3899C16.9353 34.2528 16.5873 34.1368 16.1022 34.0524L14.6574 33.7888C12.5167 33.4091 11.441 32.4178 11.441 30.8465H11.4515Z" fill="white"/>
<path d="M27.6137 37.764C27.5082 37.7957 27.3289 37.8168 27.0759 37.8484C26.8228 37.88 26.5275 37.9011 26.2006 37.9328C25.8736 37.9539 25.5256 37.975 25.1776 37.9855C24.8296 37.996 24.5027 38.0066 24.2074 38.0066C22.9736 38.0066 22.0455 37.8062 21.4022 37.416C20.7695 37.0258 20.4531 36.3825 20.4531 35.5072C20.4531 34.7058 20.7273 34.1047 21.2862 33.7145C21.8452 33.3137 22.7521 33.1134 23.9965 33.1134C24.5871 33.1134 25.0089 33.1345 25.2831 33.1661C25.2831 32.449 24.6925 32.0799 23.5114 32.0799C23.1212 32.0799 22.7416 32.1221 22.3935 32.1959C22.0455 32.2697 21.7608 32.3752 21.5604 32.5123C21.4233 32.3963 21.3073 32.2381 21.2019 32.0482C21.0964 31.8479 21.0437 31.6475 21.0437 31.4471C21.0437 31.0675 21.2546 30.7722 21.6764 30.5613C22.0983 30.3398 22.7416 30.2344 23.6063 30.2344C24.9245 30.2344 25.9264 30.498 26.6013 31.0253C27.2762 31.5526 27.6137 32.3435 27.6137 33.3876V37.7429V37.764ZM24.1758 36.3615C24.4183 36.3615 24.6398 36.3615 24.8612 36.3404C25.0827 36.3193 25.2198 36.3087 25.2831 36.2876V34.748C25.1143 34.7269 24.914 34.7163 24.7031 34.6952C24.4921 34.6847 24.3023 34.6741 24.1441 34.6741C23.6379 34.6741 23.2688 34.748 23.0579 34.9061C22.847 35.0643 22.7416 35.2752 22.7416 35.56C22.7416 36.0978 23.2161 36.372 24.1758 36.372V36.3615Z" fill="white"/>
<path d="M28.6953 30.2157C28.6953 29.2244 28.959 28.4651 29.4862 27.9484C30.0135 27.4316 30.7834 27.168 31.7852 27.168C32.1754 27.168 32.5445 27.2102 32.8714 27.284C33.1983 27.3578 33.4514 27.4527 33.6413 27.5582C33.9682 27.748 34.1369 28.0222 34.1369 28.3702C34.1369 28.5811 34.0842 28.7815 33.9682 28.9607C33.8522 29.14 33.7045 29.2877 33.5147 29.3826C33.3882 29.2666 33.2089 29.1717 32.9558 29.0978C32.7132 29.024 32.4601 28.9818 32.2176 28.9818C31.8379 28.9818 31.5532 29.0873 31.3423 29.2877C31.1314 29.488 31.0365 29.7728 31.0365 30.1419V30.4582H32.6394C33.4409 30.4582 33.8416 30.8063 33.8416 31.5023C33.8416 31.6921 33.81 31.8925 33.7573 32.1034C33.7045 32.3143 33.6307 32.483 33.5569 32.6307H31.047V37.8297H28.727V30.2368L28.6953 30.2157Z" fill="white"/>
<path d="M37.5371 38.0078C36.7672 38.0078 36.0923 37.839 35.5123 37.5121C34.9323 37.1852 34.4788 36.7317 34.1519 36.1517C33.825 35.5717 33.6562 34.8968 33.6562 34.1269C33.6562 33.3571 33.825 32.6927 34.173 32.1127C34.5105 31.5327 34.985 31.0687 35.5756 30.7417C36.1767 30.4148 36.8516 30.2461 37.6109 30.2461C38.2436 30.2461 38.8131 30.3621 39.3088 30.573C39.8044 30.7945 40.2052 31.1003 40.4899 31.4799C40.7746 31.8701 40.9223 32.3025 40.9223 32.7982C40.9223 33.5996 40.6059 34.1797 39.9731 34.5488C39.3404 34.9179 38.328 35.0971 36.9254 35.0971C36.7462 35.0971 36.588 35.0971 36.4614 35.0971C36.3349 35.0971 36.2189 35.0866 36.1134 35.076C36.1661 35.3713 36.3771 35.6139 36.7145 35.7932C37.0625 35.9724 37.4949 36.0673 38.0327 36.0673C38.2226 36.0673 38.444 36.0463 38.6971 36.0041C38.9502 35.9619 39.1822 35.8986 39.4142 35.8353C39.6357 35.7615 39.8044 35.6982 39.9099 35.6244L40.7219 37.2379C40.5004 37.3856 40.2052 37.5121 39.8466 37.6387C39.488 37.7547 39.1084 37.8496 38.6971 37.9234C38.2964 37.9867 37.9062 38.0289 37.5265 38.0289L37.5371 38.0078ZM37.5898 32.0283C37.1469 32.0283 36.7778 32.176 36.472 32.4712C36.1661 32.7665 36.0185 33.1356 36.0185 33.5891C36.0923 33.5891 36.1767 33.5996 36.261 33.5996H36.4825C37.2734 33.5996 37.8324 33.5258 38.1804 33.3887C38.5178 33.2516 38.6971 33.0407 38.6971 32.7771C38.6971 32.5556 38.5917 32.3763 38.3913 32.2392C38.1909 32.1021 37.9273 32.0283 37.6004 32.0283H37.5898Z" fill="white"/>
</g>
</g>
<defs>
<filter id="filter0_d_2384_2958" x="0" y="0" width="52" height="52" filterUnits="userSpaceOnUse" color-interpolation-filters="sRGB">
<feFlood flood-opacity="0" result="BackgroundImageFix"/>
<feColorMatrix in="SourceAlpha" type="matrix" values="0 0 0 0 0 0 0 0 0 0 0 0 0 0 0 0 0 0 127 0" result="hardAlpha"/>
<feOffset/>
<feGaussianBlur stdDeviation="3"/>
<feComposite in2="hardAlpha" operator="out"/>
<feColorMatrix type="matrix" values="0 0 0 0 0 0 0 0 0 0 0 0 0 0 0 0 0 0 0.1 0"/>
<feBlend mode="normal" in2="BackgroundImageFix" result="effect1_dropShadow_2384_2958"/>
<feBlend mode="normal" in="SourceGraphic" in2="effect1_dropShadow_2384_2958" result="shape"/>
</filter>
<linearGradient id="paint0_linear_2384_2958" x1="26.0158" y1="30.502" x2="26.0158" y2="46.002" gradientUnits="userSpaceOnUse">
<stop stop-color="#00D0C7"/>
<stop offset="1" stop-color="#73EDD7"/>
</linearGradient>
<clipPath id="clip0_2384_2958">
<rect x="6" y="6" width="40" height="40" rx="8" fill="white"/>
</clipPath>
</defs>
</svg>
