<svg xmlns="http://www.w3.org/2000/svg" width="88" height="91" viewBox="0 0 88 91" fill="none">
<path d="M82.5 45C70.0746 45 60 34.9254 60 22.5C60 10.0746 70.0746 0 82.5 0C94.9254 0 105 10.0746 105 22.5C105 34.9254 94.9254 45 82.5 45ZM82.5 11.4179C76.3881 11.4179 71.4179 16.3881 71.4179 22.5C71.4179 28.6119 76.3881 33.5821 82.5 33.5821C88.6119 33.5821 93.5821 28.6119 93.5821 22.5C93.5821 16.3881 88.6119 11.4179 82.5 11.4179Z" fill="#73EED8"/>
<path d="M16.5 58C12.2655 58 8.03097 59.6062 4.81858 62.8186C-1.60619 69.2434 -1.60619 79.7566 4.81858 86.1814C11.2434 92.6062 21.7566 92.6062 28.1814 86.1814C34.6062 79.7566 34.6062 69.2434 28.1814 62.8186C24.969 59.6062 20.7345 58 16.5 58ZM16.5 78.6615C15.4779 78.6615 14.3827 78.2235 13.5796 77.4934C11.9735 75.8872 11.9735 73.2589 13.5796 71.6527C15.1858 70.0465 17.8142 70.0465 19.4204 71.6527C21.0265 73.2589 21.0265 75.8872 19.4204 77.4934C18.6173 78.2965 17.5951 78.6615 16.5 78.6615Z" fill="#A0F0E0"/>
</svg>