<svg width="20" height="17" viewBox="0 0 20 17" fill="none" xmlns="http://www.w3.org/2000/svg">
<g id="Group 427318416">
<path id="Rectangle 2591" d="M1 5.33333C1 4.59695 1.59695 4 2.33333 4H5.82279C6.06008 4 6.29308 3.93667 6.49772 3.81655L10.9917 1.17877C11.8806 0.657046 13 1.298 13 2.32865V13.6713C13 14.702 11.8806 15.343 10.9917 14.8212L6.49772 12.1834C6.29308 12.0633 6.06008 12 5.82279 12H2.33333C1.59695 12 1 11.403 1 10.6667V5.33333Z" stroke="black" stroke-linejoin="round"/>
<path id="Vector 1273" d="M16.7759 8H19.4425" stroke="black" stroke-linecap="round"/>
<path id="Vector 1276" d="M15.6665 11.166L17.9759 12.4993" stroke="black" stroke-linecap="round"/>
<path id="Vector 1275" d="M15.6665 4.83398L17.9759 3.50065" stroke="black" stroke-linecap="round"/>
<path id="Vector 1274" d="M3.6665 12L3.6665 16" stroke="black" stroke-linecap="round"/>
</g>
</svg>
