<svg
xmlns="http://www.w3.org/2000/svg"
width="381"
height="381"
viewBox="0 0 381 381"
fill="none"
>
<path
    d="M190.493 0C85.4683 0 -0.599224 85.4699 0.00314274 190.518C1.70394 233.448 7.05438 243.6 7.05438 243.6C15.7533 270.3 40.8223 289.595 70.4269 289.595C100.031 289.595 126.164 269.467 134.331 241.899C138.707 229.603 142.038 214.631 144.536 196.613C149.319 206.995 159.17 233.642 168.737 257.916C172.315 266.987 181.103 272.958 190.865 272.958H201.034C201.034 272.958 207.217 273.277 207.217 267.448C207.217 252.459 210.495 224.979 227.786 220.567C248.373 215.305 260.296 238.338 238.363 254.797L221.515 266.58C212.461 272.462 219.672 272.958 219.672 272.958L258.401 272.958C272.113 272.958 283.239 263.107 283.239 250.953V130.012C283.239 117.858 272.113 108.024 258.401 108.024C248.072 108.024 240.719 112.436 236.149 120.108L193.947 192.289L151.977 120.657C146.892 112.135 139.876 107.971 129.494 107.971C112.557 107.971 105.559 119.612 103.894 129.959C93.7243 192.91 87.7892 240.552 66.4761 242.82C43.9582 245.212 46.4031 190.5 46.4031 190.5C46.4031 111.036 111.033 46.3848 190.493 46.3848C269.952 46.3848 334.6 111.036 334.6 190.5C334.6 269.964 269.934 334.615 190.493 334.615C161.88 334.615 134.26 326.253 110.608 310.448C99.8897 303.326 85.5038 306.196 78.4348 316.844C71.295 327.51 74.1828 341.915 84.8305 349.02C116.136 369.944 152.685 381 190.493 381C295.553 381 381 295.53 381 190.482C381 85.4344 295.553 0 190.493 0Z"
    fill="#E7FBF7"
/>
</svg>