<svg width="37" height="36" viewBox="0 0 37 36" fill="none" xmlns="http://www.w3.org/2000/svg">
<circle cx="18.1978" cy="18" r="17.5" fill="white" stroke="#E6E6E6"/>
<path d="M19.0451 9.75391C19.9736 9.75544 20.4441 9.76035 20.8506 9.77245L21.0108 9.77769C21.1957 9.78427 21.3782 9.79252 21.5983 9.80283C22.4761 9.84339 23.075 9.98227 23.6009 10.1865C24.1447 10.3961 24.604 10.6794 25.0625 11.138C25.5204 11.5965 25.8037 12.0571 26.0141 12.5996C26.2175 13.1248 26.3564 13.7243 26.3977 14.6023C26.4075 14.8223 26.4154 15.0047 26.4219 15.1898L26.4271 15.3499C26.4392 15.7564 26.4447 16.227 26.4464 17.1554L26.4471 17.7706C26.4472 17.8458 26.4472 17.9233 26.4472 18.0033L26.4471 18.2361L26.4466 18.8513C26.445 19.7797 26.4402 20.2502 26.4281 20.6568L26.4228 20.8169C26.4163 21.0019 26.408 21.1844 26.3977 21.4044C26.3571 22.2823 26.2175 22.8812 26.0141 23.4071C25.8044 23.9509 25.5204 24.4101 25.0625 24.8687C24.604 25.3265 24.1426 25.6098 23.6009 25.8202C23.075 26.0237 22.4761 26.1626 21.5983 26.2038C21.3782 26.2137 21.1957 26.2216 21.0108 26.2281L20.8506 26.2333C20.4441 26.2453 19.9736 26.2509 19.0451 26.2526L18.4299 26.2533C18.3548 26.2533 18.2772 26.2533 18.1972 26.2533L17.9645 26.2533L17.3493 26.2528C16.4208 26.2512 15.9502 26.2463 15.5437 26.2342L15.3836 26.2289C15.1986 26.2224 15.0161 26.2142 14.7961 26.2038C13.9182 26.1633 13.32 26.0237 12.7934 25.8202C12.2503 25.6105 11.7904 25.3265 11.3318 24.8687C10.8732 24.4101 10.5907 23.9488 10.3803 23.4071C10.1761 22.8812 10.0379 22.2823 9.99668 21.4044C9.98688 21.1844 9.97888 21.0019 9.9724 20.8169L9.96722 20.6568C9.95515 20.2502 9.94964 19.7797 9.94786 18.8513L9.94775 17.1554C9.94929 16.227 9.9542 15.7564 9.9663 15.3499L9.97154 15.1898C9.97811 15.0047 9.98636 14.8223 9.99668 14.6023C10.0372 13.7236 10.1761 13.1255 10.3803 12.5996C10.59 12.0564 10.8732 11.5965 11.3318 11.138C11.7904 10.6794 12.251 10.3968 12.7934 10.1865C13.3194 9.98227 13.9175 9.84408 14.7961 9.80283C15.0161 9.79303 15.1986 9.78503 15.3836 9.77856L15.5437 9.77337C15.9502 9.7613 16.4208 9.7558 17.3493 9.75401L19.0451 9.75391ZM18.1972 13.8783C15.9178 13.8783 14.0722 15.7259 14.0722 18.0033C14.0722 20.2827 15.9198 22.1283 18.1972 22.1283C20.4766 22.1283 22.3222 20.2807 22.3222 18.0033C22.3222 15.7239 20.4745 13.8783 18.1972 13.8783ZM18.1972 15.5283C19.5641 15.5283 20.6722 16.636 20.6722 18.0033C20.6722 19.3703 19.5645 20.4783 18.1972 20.4783C16.8303 20.4783 15.7222 19.3706 15.7222 18.0033C15.7222 16.6364 16.8298 15.5283 18.1972 15.5283ZM22.5284 12.6408C21.9598 12.6408 21.4972 13.1027 21.4972 13.6714C21.4972 14.24 21.9591 14.7026 22.5284 14.7026C23.097 14.7026 23.5597 14.2407 23.5597 13.6714C23.5597 13.1027 23.0963 12.6401 22.5284 12.6408Z" fill="#B3B3B3"/>
</svg>
