<svg xmlns="http://www.w3.org/2000/svg" width="103" height="24" viewBox="0 0 103 24" fill="none">
  <g clip-path="url(#clip0_1721_243)">
    <path d="M24.6712 19.9068C27.0863 18.1679 25.771 15.7322 23.5054 16.2874C21.6011 16.7554 21.2398 19.6574 21.2398 21.2425C21.2398 21.8591 20.5599 21.8249 20.5599 21.8249H19.4386C18.3637 21.8249 17.3972 21.1981 17.0021 20.2364C15.9485 17.6709 14.8629 14.8526 14.336 13.756C13.2949 20.9538 10.9847 23.5706 5.83409 23.5706C3.32996 23.5706 1.54663 22.6704 0.549963 21.2869C-0.0106643 20.508 1.43809e-05 19.8009 1.43809e-05 19.8009C1.43809e-05 18.4737 1.12305 17.4386 2.50593 17.3976C3.1769 17.3771 3.6521 17.5855 4.33375 18.1679C4.33375 18.1679 4.92641 18.6992 5.74154 18.6428C8.09618 18.4805 8.74223 13.3666 9.86171 6.71531C10.045 5.62215 10.8157 4.39062 12.6809 4.39062C13.8235 4.39062 14.5959 4.83131 15.1565 5.73146L19.7768 13.3016L24.4238 5.67339C24.9274 4.86376 25.7355 4.39575 26.8745 4.39575C28.3855 4.39575 29.61 5.43597 29.61 6.72044V19.502C29.61 20.7864 28.3855 21.8266 26.8745 21.8266H22.6102C22.6102 21.8266 21.8182 21.7754 22.8131 21.152L24.6712 19.9068Z" fill="#B3B3B3"/>
    <path d="M34.9974 21.8198C33.4401 21.8198 32.1782 20.6088 32.1782 19.1142V7.09451C32.1782 5.59994 33.4401 4.39062 34.9974 4.39062C36.5547 4.39062 37.8165 5.60165 37.8165 7.09451V19.1159C37.8165 20.6088 36.5547 21.8198 34.9974 21.8198Z" fill="#B3B3B3"/>
    <path d="M79.4835 21.8198C77.9262 21.8198 76.6643 20.6088 76.6643 19.1142V7.09451C76.6643 5.59994 77.9262 4.39062 79.4835 4.39062C81.0408 4.39062 82.3026 5.60165 82.3026 7.09451V19.1159C82.3026 20.6088 81.0408 21.8198 79.4835 21.8198Z" fill="#B3B3B3"/>
    <path d="M72.711 4.39062H61.212C59.7739 4.39062 58.6082 5.50941 58.6082 6.88954C58.6082 8.26966 59.7739 9.38845 61.212 9.38845H64.1432V19.1193C64.1432 20.6139 65.4051 21.8249 66.9624 21.8249C68.5197 21.8249 69.7815 20.6139 69.7815 19.1193V9.38674H72.7128C74.1509 9.38674 75.3166 8.26795 75.3166 6.88783C75.3148 5.50941 74.1491 4.39062 72.711 4.39062Z" fill="#B3B3B3"/>
    <path d="M49.1568 20.2125C49.3134 21.181 49.9292 21.8232 50.8565 21.8232C50.8565 21.8232 54.2683 21.8147 54.2594 21.8232C55.8167 21.8232 57.0786 20.6122 57.0786 19.1176V7.09621C57.0786 5.60165 55.8167 4.39062 54.2594 4.39062C52.7021 4.39062 51.4403 5.60165 51.4403 7.09621V15.2061L45.6685 5.80662C45.1915 4.96283 44.2607 4.39062 43.1893 4.39062C41.632 4.39062 40.3701 5.60165 40.3701 7.09621V19.1176C40.3701 20.6122 41.632 21.8232 43.1893 21.8232H47.612C47.612 21.8232 48.0338 21.801 47.7775 21.3398C47.7775 21.3398 47.2062 20.4585 45.7005 19.5925C45.7005 19.5925 43.563 18.4805 43.9243 16.3711C43.9243 16.3711 44.1646 14.7825 45.955 15.0712C45.955 15.0712 47.7989 15.3752 48.687 18.3353C48.6905 18.3353 48.9628 19.0186 49.1568 20.2125Z" fill="#B3B3B3"/>
    <path d="M99.6772 0C98.2854 0 97.1571 1.08292 97.1571 2.41863C97.1571 2.43059 97.1642 2.43913 97.1642 2.45109H97.1499C97.1304 3.52376 96.2244 4.39146 95.1014 4.39146C95.089 4.39146 95.0801 4.38462 95.0676 4.38462L95.064 4.39146H86.2542C84.8161 4.39146 83.6504 5.51025 83.6504 6.89037C83.6504 8.27049 84.8161 9.38928 86.2542 9.38928H88.9452V19.1185C88.9452 20.613 90.2071 21.8241 91.7643 21.8241C93.3199 21.8241 94.5835 20.613 94.5835 19.1185V9.41832H94.9608C98.9582 9.41832 102.197 6.30962 102.197 2.47329V2.41863C102.197 1.08292 101.069 0 99.6772 0Z" fill="#B3B3B3"/>
  </g>
  <defs>
    <clipPath id="clip0_1721_243">
      <rect width="102.198" height="24" fill="white"/>
    </clipPath>
  </defs>
</svg>