<svg xmlns="http://www.w3.org/2000/svg" width="28" height="28" viewBox="0 0 28 28" fill="none">
  <g clip-path="url(#clip0_2384_6490)">
    <rect x="-7.47144" y="-5.01562" width="42.7" height="42.7" fill="white"/>
    <path d="M0.000790223 10.6055V28.0049H28.0008V10.6055C23.4756 11.5356 18.7954 12.0154 13.9971 12.0154C9.19879 12.0154 4.51859 11.5282 -0.0065918 10.6055H0.000790223Z" fill="url(#paint0_linear_2384_6490)"/>
    <path d="M9.65985 8.27819C10.0585 7.98291 9.83702 7.56213 9.46792 7.6581C9.15787 7.7393 9.09881 8.2339 9.09881 8.50703C9.09881 8.61038 8.98808 8.603 8.98808 8.603H8.80353C8.62637 8.603 8.47134 8.49227 8.40491 8.32986C8.23512 7.89433 8.05057 7.40711 7.96937 7.22256C7.79958 8.45536 7.41571 8.89828 6.57416 8.89828C6.16077 8.89828 5.87287 8.74326 5.70309 8.50703C5.6145 8.37416 5.6145 8.25604 5.6145 8.25604C5.6145 8.0272 5.79905 7.85003 6.02789 7.84265C6.13863 7.84265 6.21245 7.87218 6.33056 7.97553C6.33056 7.97553 6.42652 8.06411 6.5594 8.05673C6.94327 8.0272 7.054 7.15612 7.23855 6.01929C7.26807 5.83474 7.39357 5.62066 7.70361 5.62066C7.88816 5.62066 8.02104 5.69448 8.10962 5.84951L8.86997 7.14136L9.63032 5.83474C9.71152 5.69448 9.8444 5.61328 10.0289 5.61328C10.2799 5.61328 10.4793 5.79045 10.4793 6.01191V8.19699C10.4793 8.41845 10.2799 8.59562 10.0289 8.59562H9.32766C9.32766 8.59562 9.19478 8.58823 9.36457 8.4775L9.66723 8.26343L9.65985 8.27819Z" fill="#09CCBD"/>
    <path d="M11.3569 8.61081C11.0985 8.61081 10.8918 8.40411 10.8918 8.14574V6.08616C10.8918 5.82779 11.0985 5.62109 11.3569 5.62109C11.6153 5.62109 11.822 5.82779 11.822 6.08616V8.14574C11.822 8.40411 11.6153 8.61081 11.3569 8.61081Z" fill="#09CCBD"/>
    <path d="M18.6577 8.61081C18.3993 8.61081 18.1926 8.40411 18.1926 8.14574V6.08616C18.1926 5.82779 18.3993 5.62109 18.6577 5.62109C18.9161 5.62109 19.1228 5.82779 19.1228 6.08616V8.14574C19.1228 8.40411 18.9161 8.61081 18.6577 8.61081Z" fill="#09CCBD"/>
    <path d="M17.5391 5.625H15.6493C15.4131 5.625 15.2212 5.81693 15.2212 6.05316C15.2212 6.28938 15.4131 6.48131 15.6493 6.48131H16.1292V8.14965C16.1292 8.40802 16.3359 8.61472 16.5942 8.61472C16.8526 8.61472 17.0593 8.40802 17.0593 8.14965V6.48131H17.5391C17.7754 6.48131 17.9673 6.28938 17.9673 6.05316C17.9673 5.81693 17.7754 5.625 17.5391 5.625Z" fill="#09CCBD"/>
    <path d="M13.6802 8.32986C13.7097 8.49227 13.8057 8.603 13.9607 8.603H14.5218C14.7801 8.603 14.9868 8.3963 14.9868 8.13793V6.07835C14.9868 5.81998 14.7801 5.61328 14.5218 5.61328C14.2634 5.61328 14.0567 5.81998 14.0567 6.07835V7.46617L13.1118 5.85689C13.0306 5.70925 12.883 5.61328 12.7058 5.61328C12.4474 5.61328 12.2407 5.81998 12.2407 6.07835V8.13793C12.2407 8.3963 12.4474 8.603 12.7058 8.603H13.4292C13.4292 8.603 13.4957 8.603 13.4588 8.5218C13.4588 8.5218 13.3628 8.37416 13.1192 8.21913C13.1192 8.21913 12.7648 8.0272 12.8313 7.66548C12.8313 7.66548 12.8682 7.39235 13.1635 7.44402C13.1635 7.44402 13.4661 7.4957 13.6138 8.00506C13.6138 8.00506 13.6581 8.12317 13.6876 8.32986" fill="#09CCBD"/>
    <path d="M21.9764 4.875C21.7476 4.875 21.5631 5.05955 21.5631 5.28839C21.5631 5.48033 21.408 5.62797 21.2235 5.62797H19.7692C19.533 5.62797 19.3411 5.8199 19.3411 6.05612C19.3411 6.29235 19.533 6.48428 19.7692 6.48428H20.2121V8.15262C20.2121 8.41099 20.4188 8.61768 20.6772 8.61768C20.9356 8.61768 21.1423 8.41099 21.1423 8.15262V6.49166H21.2013C21.8583 6.49166 22.3898 5.96016 22.3898 5.30316C22.3898 5.06693 22.2053 4.88238 21.9764 4.88238" fill="#09CCBD"/>
    <path d="M3.81851 17.3926C3.81851 16.6913 4.0695 16.145 4.57886 15.7464C5.08822 15.3478 5.78951 15.1484 6.67535 15.1484C7.12566 15.1484 7.5612 15.1927 7.98197 15.2813C8.40275 15.3699 8.73494 15.488 8.98593 15.6357C9.31074 15.8276 9.47314 16.0638 9.47314 16.3296C9.47314 16.4993 9.41408 16.6765 9.30335 16.8758C9.19262 17.0678 9.05975 17.2228 8.90472 17.3188C8.78661 17.1933 8.60206 17.0751 8.36584 16.9718C8.12961 16.8684 7.86386 16.7799 7.56858 16.7208C7.2733 16.6544 6.9854 16.6248 6.6975 16.6248C5.92239 16.6248 5.53852 16.8463 5.53852 17.2892C5.53852 17.4442 5.60496 17.5697 5.73784 17.6583C5.87071 17.7469 6.10694 17.8281 6.43175 17.8872L7.44308 18.0717C8.2994 18.2194 8.90472 18.463 9.26644 18.8099C9.62816 19.1569 9.80533 19.6146 9.80533 20.1977C9.80533 20.9064 9.53958 21.4601 9.00069 21.8513C8.4618 22.2499 7.7236 22.4493 6.77132 22.4493C6.51295 22.4493 6.23243 22.4271 5.91501 22.3754C5.59758 22.3311 5.28753 22.2647 4.97749 22.1835C4.66745 22.1023 4.39431 22.0137 4.1507 21.9177C3.9071 21.8218 3.72993 21.7184 3.61182 21.6225L4.30573 20.2863C4.46813 20.3971 4.68959 20.5004 4.97749 20.5964C5.26539 20.6997 5.56805 20.7809 5.90024 20.84C6.22505 20.899 6.52033 20.9286 6.78608 20.9286C7.21424 20.9286 7.53167 20.8769 7.7236 20.7735C7.91553 20.6702 8.01888 20.5078 8.01888 20.2789C8.01888 20.1018 7.94506 19.9689 7.8048 19.8729C7.65716 19.777 7.41356 19.6958 7.07398 19.6367L6.06265 19.4522C4.5641 19.1864 3.81113 18.4925 3.81113 17.3926H3.81851Z" fill="white"/>
    <path d="M15.132 22.2317C15.0582 22.2538 14.9327 22.2686 14.7555 22.2908C14.5784 22.3129 14.3717 22.3277 14.1428 22.3498C13.914 22.3646 13.6704 22.3793 13.4268 22.3867C13.1832 22.3941 12.9543 22.4015 12.7476 22.4015C11.8839 22.4015 11.2343 22.2612 10.784 21.9881C10.3411 21.715 10.1196 21.2647 10.1196 20.6519C10.1196 20.0909 10.3116 19.6701 10.7028 19.397C11.0941 19.1165 11.7289 18.9762 12.6 18.9762C13.0134 18.9762 13.3087 18.991 13.5006 19.0131C13.5006 18.5112 13.0872 18.2528 12.2604 18.2528C11.9873 18.2528 11.7215 18.2823 11.4779 18.334C11.2343 18.3857 11.035 18.4595 10.8947 18.5555C10.7988 18.4743 10.7176 18.3635 10.6438 18.2306C10.5699 18.0904 10.533 17.9501 10.533 17.8099C10.533 17.5441 10.6807 17.3374 10.9759 17.1898C11.2712 17.0348 11.7215 16.9609 12.3269 16.9609C13.2496 16.9609 13.9509 17.1455 14.4233 17.5146C14.8958 17.8837 15.132 18.4373 15.132 19.1682V22.2169V22.2317ZM12.7255 21.2499C12.8953 21.2499 13.0503 21.2499 13.2053 21.2351C13.3603 21.2204 13.4563 21.213 13.5006 21.1982V20.1204C13.3825 20.1057 13.2422 20.0983 13.0946 20.0835C12.9469 20.0761 12.8141 20.0688 12.7033 20.0688C12.349 20.0688 12.0906 20.1204 11.943 20.2312C11.7953 20.3419 11.7215 20.4895 11.7215 20.6889C11.7215 21.0653 12.0537 21.2573 12.7255 21.2573V21.2499Z" fill="white"/>
    <path d="M15.8892 16.9498C15.8892 16.2559 16.0737 15.7244 16.4428 15.3627C16.8119 15.001 17.3508 14.8164 18.0521 14.8164C18.3252 14.8164 18.5836 14.8459 18.8124 14.8976C19.0413 14.9493 19.2185 15.0157 19.3513 15.0895C19.5802 15.2224 19.6983 15.4143 19.6983 15.658C19.6983 15.8056 19.6614 15.9459 19.5802 16.0714C19.499 16.1968 19.3956 16.3002 19.2627 16.3666C19.1742 16.2854 19.0487 16.219 18.8715 16.1673C18.7017 16.1156 18.5245 16.0861 18.3548 16.0861C18.089 16.0861 17.8897 16.1599 17.742 16.3002C17.5944 16.4405 17.528 16.6398 17.528 16.8981V17.1196H18.65C19.2111 17.1196 19.4916 17.3632 19.4916 17.8504C19.4916 17.9833 19.4694 18.1236 19.4325 18.2712C19.3956 18.4188 19.3439 18.5369 19.2923 18.6403H17.5354V22.2796H15.9113V16.9646L15.8892 16.9498Z" fill="white"/>
    <path d="M22.0784 22.4058C21.5395 22.4058 21.0671 22.2877 20.6611 22.0589C20.255 21.83 19.9376 21.5126 19.7088 21.1066C19.4799 20.7006 19.3618 20.2281 19.3618 19.6892C19.3618 19.1504 19.4799 18.6853 19.7235 18.2793C19.9598 17.8733 20.292 17.5485 20.7053 17.3196C21.1261 17.0908 21.5986 16.9727 22.1301 16.9727C22.573 16.9727 22.9716 17.0539 23.3186 17.2015C23.6655 17.3565 23.9461 17.5706 24.1454 17.8364C24.3447 18.1095 24.448 18.4122 24.448 18.7591C24.448 19.3201 24.2266 19.7261 23.7836 19.9845C23.3407 20.2429 22.6321 20.3684 21.6502 20.3684C21.5247 20.3684 21.414 20.3684 21.3254 20.3684C21.2368 20.3684 21.1556 20.361 21.0818 20.3536C21.1187 20.5603 21.2664 20.7301 21.5026 20.8556C21.7462 20.9811 22.0489 21.0475 22.4254 21.0475C22.5582 21.0475 22.7133 21.0328 22.8904 21.0032C23.0676 20.9737 23.23 20.9294 23.3924 20.8851C23.5474 20.8335 23.6655 20.7892 23.7394 20.7375L24.3078 21.8669C24.1527 21.9703 23.946 22.0589 23.6951 22.1475C23.4441 22.2287 23.1783 22.2951 22.8904 22.3468C22.6099 22.3911 22.3368 22.4206 22.071 22.4206L22.0784 22.4058ZM22.1153 18.2202C21.8053 18.2202 21.5469 18.3236 21.3328 18.5303C21.1187 18.737 21.0154 18.9953 21.0154 19.3128C21.0671 19.3128 21.1261 19.3201 21.1852 19.3201H21.3402C21.8938 19.3201 22.2851 19.2685 22.5287 19.1725C22.7649 19.0765 22.8904 18.9289 22.8904 18.7443C22.8904 18.5893 22.8166 18.4638 22.6763 18.3679C22.5361 18.2719 22.3515 18.2202 22.1227 18.2202H22.1153Z" fill="white"/>
  </g>
  <defs>
    <linearGradient id="paint0_linear_2384_6490" x1="14.0045" y1="17.1475" x2="14.0045" y2="27.9975" gradientUnits="userSpaceOnUse">
      <stop stop-color="#00D0C7"/>
      <stop offset="1" stop-color="#73EDD7"/>
    </linearGradient>
    <clipPath id="clip0_2384_6490">
      <rect width="28" height="28" rx="5.6" fill="white"/>
    </clipPath>
  </defs>
</svg>