<svg xmlns="http://www.w3.org/2000/svg" width="40" height="40" viewBox="0 0 40 40" fill="none">
  <rect width="40" height="40" fill="white"/>
  <path d="M0.015423 15.1445V39.9877H39.9943V15.1445C33.5332 16.4726 26.8507 17.1577 19.9996 17.1577C13.1485 17.1577 6.46602 16.4621 0.00488281 15.1445H0.015423Z" fill="url(#paint0_linear_1739_4430)"/>
  <path d="M13.8126 11.8167C14.3818 11.3951 14.0656 10.7943 13.5386 10.9313C13.0959 11.0473 13.0116 11.7535 13.0116 12.1435C13.0116 12.291 12.8535 12.2805 12.8535 12.2805H12.59C12.337 12.2805 12.1157 12.1224 12.0208 11.8905C11.7784 11.2686 11.5149 10.573 11.3989 10.3095C11.1565 12.0697 10.6084 12.7021 9.40684 12.7021C8.81659 12.7021 8.40553 12.4808 8.1631 12.1435C8.03662 11.9537 8.03662 11.7851 8.03662 11.7851C8.03662 11.4584 8.30013 11.2054 8.62687 11.1949C8.78497 11.1949 8.89038 11.237 9.05902 11.3846C9.05902 11.3846 9.19604 11.5111 9.38576 11.5005C9.93385 11.4584 10.092 10.2146 10.3555 8.59143C10.3976 8.32792 10.5768 8.02226 11.0195 8.02226C11.283 8.02226 11.4727 8.12766 11.5992 8.349L12.6848 10.1935L13.7705 8.32792C13.8864 8.12766 14.0761 8.01172 14.3397 8.01172C14.698 8.01172 14.9826 8.26468 14.9826 8.58089V11.7008C14.9826 12.017 14.698 12.27 14.3397 12.27H13.3383C13.3383 12.27 13.1486 12.2594 13.391 12.1013L13.8232 11.7956L13.8126 11.8167Z" fill="#09CCBD"/>
  <path d="M16.2368 12.2922C15.8679 12.2922 15.5728 11.9971 15.5728 11.6282V8.68747C15.5728 8.31856 15.8679 8.02344 16.2368 8.02344C16.6057 8.02344 16.9008 8.31856 16.9008 8.68747V11.6282C16.9008 11.9971 16.6057 12.2922 16.2368 12.2922Z" fill="#09CCBD"/>
  <path d="M26.6611 12.2922C26.2922 12.2922 25.9971 11.9971 25.9971 11.6282V8.68747C25.9971 8.31856 26.2922 8.02344 26.6611 8.02344C27.03 8.02344 27.3251 8.31856 27.3251 8.68747V11.6282C27.3251 11.9971 27.03 12.2922 26.6611 12.2922Z" fill="#09CCBD"/>
  <path d="M25.0696 8.03125H22.3713C22.0341 8.03125 21.76 8.30529 21.76 8.64258C21.76 8.97987 22.0341 9.25391 22.3713 9.25391H23.0565V11.636C23.0565 12.0049 23.3516 12.3 23.7205 12.3C24.0894 12.3 24.3845 12.0049 24.3845 11.636V9.25391H25.0696C25.4069 9.25391 25.681 8.97987 25.681 8.64258C25.681 8.30529 25.4069 8.03125 25.0696 8.03125Z" fill="#09CCBD"/>
  <path d="M19.5465 11.8905C19.5887 12.1224 19.7257 12.2805 19.9471 12.2805H20.7481C21.117 12.2805 21.4122 11.9854 21.4122 11.6165V8.67575C21.4122 8.30684 21.117 8.01172 20.7481 8.01172C20.3792 8.01172 20.0841 8.30684 20.0841 8.67575V10.6573L18.735 8.35954C18.619 8.14874 18.4082 8.01172 18.1552 8.01172C17.7863 8.01172 17.4912 8.30684 17.4912 8.67575V11.6165C17.4912 11.9854 17.7863 12.2805 18.1552 12.2805H19.1882C19.1882 12.2805 19.283 12.2805 19.2303 12.1646C19.2303 12.1646 19.0933 11.9537 18.7455 11.7324C18.7455 11.7324 18.2396 11.4584 18.3344 10.9419C18.3344 10.9419 18.3871 10.5519 18.8087 10.6257C18.8087 10.6257 19.2409 10.6995 19.4517 11.4267C19.4517 11.4267 19.5149 11.5954 19.5571 11.8905" fill="#09CCBD"/>
  <path d="M31.3937 6.95703C31.067 6.95703 30.8035 7.22054 30.8035 7.54728C30.8035 7.82133 30.5821 8.03213 30.3186 8.03213H28.2422C27.9049 8.03213 27.6309 8.30617 27.6309 8.64346C27.6309 8.98075 27.9049 9.25479 28.2422 9.25479H28.8746V11.6369C28.8746 12.0058 29.1697 12.3009 29.5386 12.3009C29.9075 12.3009 30.2027 12.0058 30.2027 11.6369V9.26533H30.287C31.2251 9.26533 31.984 8.50644 31.984 7.56836C31.984 7.23108 31.7205 6.96757 31.3937 6.96757" fill="#09CCBD"/>
  <path d="M5.41207 24.8292C5.41207 23.8279 5.77043 23.0479 6.49771 22.4788C7.22498 21.9096 8.2263 21.625 9.49112 21.625C10.1341 21.625 10.7559 21.6882 11.3567 21.8147C11.9575 21.9412 12.4318 22.1098 12.7902 22.3207C13.254 22.5947 13.4858 22.932 13.4858 23.3114C13.4858 23.5539 13.4015 23.8068 13.2434 24.0914C13.0853 24.3654 12.8956 24.5868 12.6743 24.7238C12.5056 24.5446 12.2421 24.376 11.9048 24.2284C11.5675 24.0809 11.1881 23.9544 10.7665 23.8701C10.3449 23.7752 9.93381 23.733 9.52274 23.733C8.41602 23.733 7.86793 24.0492 7.86793 24.6817C7.86793 24.903 7.96279 25.0822 8.15252 25.2087C8.34224 25.3351 8.67953 25.4511 9.14329 25.5354L10.5873 25.7989C11.81 26.0097 12.6743 26.3575 13.1907 26.8529C13.7072 27.3483 13.9602 28.0018 13.9602 28.8345C13.9602 29.8463 13.5807 30.6369 12.8113 31.1955C12.0418 31.7647 10.9878 32.0492 9.62814 32.0492C9.25924 32.0492 8.85871 32.0176 8.40548 31.9438C7.95225 31.8806 7.50956 31.7857 7.06688 31.6698C6.62419 31.5539 6.2342 31.4274 5.88638 31.2903C5.53855 31.1533 5.28559 31.0058 5.11694 30.8687L6.10772 28.961C6.3396 29.1191 6.65581 29.2666 7.06688 29.4037C7.47794 29.5512 7.91009 29.6672 8.3844 29.7515C8.84817 29.8358 9.26978 29.878 9.64922 29.878C10.2606 29.878 10.7138 29.8042 10.9878 29.6566C11.2619 29.5091 11.4094 29.2772 11.4094 28.9504C11.4094 28.6975 11.304 28.5077 11.1038 28.3707C10.893 28.2337 10.5451 28.1178 10.0603 28.0334L8.61628 27.7699C6.47663 27.3905 5.40153 26.3997 5.40153 24.8292H5.41207Z" fill="white"/>
  <path d="M21.5701 31.7444C21.4647 31.7761 21.2855 31.7971 21.0326 31.8288C20.7796 31.8604 20.4845 31.8815 20.1577 31.9131C19.831 31.9342 19.4832 31.9552 19.1353 31.9658C18.7875 31.9763 18.4608 31.9869 18.1656 31.9869C16.9324 31.9869 16.0049 31.7866 15.3619 31.3966C14.7295 31.0066 14.4133 30.3637 14.4133 29.4888C14.4133 28.6878 14.6874 28.087 15.246 27.697C15.8046 27.2965 16.7111 27.0962 17.9548 27.0962C18.5451 27.0962 18.9667 27.1173 19.2407 27.1489C19.2407 26.4322 18.6505 26.0633 17.47 26.0633C17.08 26.0633 16.7006 26.1054 16.3527 26.1792C16.0049 26.253 15.7203 26.3584 15.52 26.4954C15.383 26.3795 15.2671 26.2214 15.1617 26.0317C15.0563 25.8314 15.0036 25.6311 15.0036 25.4309C15.0036 25.0514 15.2144 24.7563 15.636 24.5455C16.0576 24.3242 16.7006 24.2188 17.5648 24.2188C18.8824 24.2188 19.8837 24.4823 20.5583 25.0093C21.2328 25.5363 21.5701 26.3268 21.5701 27.3703V31.7234V31.7444ZM18.134 30.3426C18.3764 30.3426 18.5978 30.3426 18.8191 30.3215C19.0405 30.3004 19.1775 30.2899 19.2407 30.2688V28.7299C19.0721 28.7089 18.8718 28.6983 18.661 28.6772C18.4502 28.6667 18.2605 28.6562 18.1024 28.6562C17.5965 28.6562 17.2276 28.7299 17.0168 28.8881C16.806 29.0462 16.7006 29.257 16.7006 29.5415C16.7006 30.0791 17.1749 30.3531 18.134 30.3531V30.3426Z" fill="white"/>
  <path d="M22.6453 24.1985C22.6453 23.2077 22.9088 22.4488 23.4358 21.9323C23.9628 21.4158 24.7322 21.1523 25.7335 21.1523C26.1235 21.1523 26.4924 21.1945 26.8192 21.2683C27.1459 21.3421 27.3989 21.4369 27.5886 21.5423C27.9154 21.7321 28.084 22.0061 28.084 22.3539C28.084 22.5647 28.0313 22.765 27.9154 22.9442C27.7994 23.1234 27.6519 23.2709 27.4621 23.3658C27.3356 23.2498 27.1565 23.155 26.9035 23.0812C26.6611 23.0074 26.4081 22.9653 26.1657 22.9653C25.7862 22.9653 25.5017 23.0707 25.2909 23.2709C25.08 23.4712 24.9852 23.7558 24.9852 24.1247V24.4409H26.5873C27.3883 24.4409 27.7889 24.7887 27.7889 25.4844C27.7889 25.6741 27.7573 25.8743 27.7046 26.0852C27.6519 26.296 27.5781 26.4646 27.5043 26.6122H24.9957V31.8085H22.6769V24.2195L22.6453 24.1985Z" fill="white"/>
  <path d="M31.4884 31.988C30.719 31.988 30.0444 31.8194 29.4647 31.4927C28.885 31.1659 28.4318 30.7127 28.105 30.133C27.7783 29.5533 27.6096 28.8787 27.6096 28.1093C27.6096 27.3398 27.7783 26.6758 28.1261 26.0961C28.4634 25.5164 28.9377 25.0526 29.5279 24.7259C30.1287 24.3991 30.8033 24.2305 31.5622 24.2305C32.1946 24.2305 32.7638 24.3464 33.2592 24.5572C33.7545 24.7786 34.1551 25.0842 34.4397 25.4637C34.7242 25.8537 34.8718 26.2858 34.8718 26.7812C34.8718 27.5822 34.5556 28.162 33.9232 28.5309C33.2908 28.8998 32.2789 29.079 30.8771 29.079C30.6979 29.079 30.5398 29.079 30.4133 29.079C30.2868 29.079 30.1709 29.0684 30.0655 29.0579C30.1182 29.353 30.329 29.5954 30.6663 29.7746C31.0141 29.9538 31.4462 30.0487 31.9838 30.0487C32.1735 30.0487 32.3949 30.0276 32.6478 29.9854C32.9008 29.9433 33.1327 29.88 33.3646 29.8168C33.5859 29.743 33.7545 29.6797 33.8599 29.606L34.6715 31.2186C34.4502 31.3662 34.1551 31.4927 33.7967 31.6191C33.4383 31.7351 33.0589 31.8299 32.6478 31.9037C32.2473 31.967 31.8573 32.0091 31.4779 32.0091L31.4884 31.988ZM31.5411 26.0118C31.0984 26.0118 30.7295 26.1593 30.4238 26.4544C30.1182 26.7496 29.9706 27.1185 29.9706 27.5717C30.0444 27.5717 30.1287 27.5822 30.213 27.5822H30.4344C31.2249 27.5822 31.7835 27.5085 32.1314 27.3714C32.4686 27.2344 32.6478 27.0236 32.6478 26.7601C32.6478 26.5388 32.5424 26.3596 32.3422 26.2226C32.1419 26.0855 31.8784 26.0118 31.5516 26.0118H31.5411Z" fill="white"/>
  <defs>
    <linearGradient id="paint0_linear_1739_4430" x1="20.0102" y1="24.4854" x2="20.0102" y2="39.9772" gradientUnits="userSpaceOnUse">
      <stop stop-color="#00D0C7"/>
      <stop offset="1" stop-color="#73EDD7"/>
    </linearGradient>
  </defs>
</svg>