<svg width="37" height="36" viewBox="0 0 37 36" fill="none" xmlns="http://www.w3.org/2000/svg">
<circle cx="18.1978" cy="18" r="17.5" fill="white" stroke="#E6E6E6"/>
<path d="M18.4173 10.8008C18.898 10.8034 20.1006 10.8151 21.3784 10.8662L21.8315 10.886C23.1181 10.9469 24.4035 11.051 25.0411 11.2287C25.8915 11.4676 26.5599 12.1647 26.7858 13.0484C27.1456 14.4516 27.1906 17.1902 27.1961 17.853L27.1969 17.9903V18C27.1969 18 27.1969 18.0033 27.1969 18.0097L27.1961 18.147C27.1906 18.8098 27.1456 21.5485 26.7858 22.9517C26.5568 23.8385 25.8883 24.5357 25.0411 24.7713C24.4035 24.9491 23.1181 25.0531 21.8315 25.114L21.3784 25.1337C20.1006 25.1849 18.898 25.1966 18.4173 25.1993L18.2063 25.2H18.1969C18.1969 25.2 18.1938 25.2 18.1876 25.2L17.9768 25.1993C16.9594 25.1937 12.7057 25.1477 11.3528 24.7713C10.5024 24.5324 9.83398 23.8353 9.60804 22.9517C9.24833 21.5485 9.20337 18.8098 9.19775 18.147V17.853C9.20337 17.1902 9.24833 14.4516 9.60804 13.0484C9.83711 12.1615 10.5055 11.4644 11.3528 11.2287C12.7057 10.8523 16.9594 10.8064 17.9768 10.8008H18.4173ZM16.397 14.85V21.15L21.7969 18L16.397 14.85Z" fill="#B3B3B3"/>
</svg>
