<svg width="24" height="24" viewBox="0 0 24 24" fill="none" xmlns="http://www.w3.org/2000/svg">
<g id="Group 427319640">
<path id="Vector" d="M5.4 5.4H5.411M5.4 18.6H5.411M3.2 1H20.8C22.015 1 23 1.98497 23 3.2V7.6C23 8.81503 22.015 9.8 20.8 9.8H3.2C1.98497 9.8 1 8.81503 1 7.6V3.2C1 1.98497 1.98497 1 3.2 1ZM3.2 14.2H20.8C22.015 14.2 23 15.185 23 16.4V20.8C23 22.015 22.015 23 20.8 23H3.2C1.98497 23 1 22.015 1 20.8V16.4C1 15.185 1.98497 14.2 3.2 14.2Z" stroke="#333333" stroke-width="1.716" stroke-linecap="round" stroke-linejoin="round"/>
</g>
</svg>
