<svg width="24" height="24" viewBox="0 0 24 24" fill="none" xmlns="http://www.w3.org/2000/svg">
<path d="M3.1753 14.7118C3.1753 14.117 3.38817 13.6537 3.82017 13.3156C4.25217 12.9775 4.84696 12.8085 5.59826 12.8085C5.98017 12.8085 6.34957 12.846 6.70643 12.9212C7.0633 12.9963 7.34504 13.0965 7.55791 13.2217C7.83339 13.3845 7.97113 13.5848 7.97113 13.8102C7.97113 13.9542 7.92104 14.1045 7.82713 14.2735C7.73322 14.4363 7.62052 14.5678 7.48904 14.6492C7.38887 14.5427 7.23235 14.4426 7.032 14.3549C6.83165 14.2673 6.60626 14.1921 6.35583 14.142C6.10539 14.0857 5.86122 14.0606 5.61704 14.0606C4.95965 14.0606 4.63409 14.2485 4.63409 14.6241C4.63409 14.7556 4.69043 14.862 4.80313 14.9372C4.91583 15.0123 5.11617 15.0812 5.39165 15.1313L6.24939 15.2878C6.97565 15.413 7.48904 15.6196 7.79583 15.9139C8.10261 16.2081 8.25287 16.5963 8.25287 17.0909C8.25287 17.6919 8.02748 18.1615 7.57044 18.4933C7.11339 18.8314 6.4873 19.0005 5.67965 19.0005C5.46052 19.0005 5.22261 18.9817 4.95339 18.9379C4.68417 18.9003 4.42122 18.8439 4.15826 18.7751C3.8953 18.7062 3.66365 18.6311 3.45704 18.5497C3.25043 18.4683 3.10017 18.3806 3 18.2993L3.58852 17.166C3.72626 17.2599 3.91409 17.3476 4.15826 17.429C4.40243 17.5166 4.65913 17.5855 4.94087 17.6356C5.21635 17.6857 5.46678 17.7107 5.69217 17.7107C6.0553 17.7107 6.32452 17.6669 6.4873 17.5793C6.65009 17.4916 6.73774 17.3539 6.73774 17.1598C6.73774 17.0095 6.67513 16.8968 6.55617 16.8154C6.43096 16.734 6.22435 16.6652 5.93635 16.6151L5.07861 16.4586C3.80765 16.2332 3.16904 15.6446 3.16904 14.7118H3.1753Z" fill="#333333"/>
<path d="M12.7735 18.8171C12.7109 18.8359 12.6044 18.8484 12.4542 18.8672C12.3039 18.886 12.1286 18.8985 11.9345 18.9173C11.7404 18.9298 11.5338 18.9423 11.3272 18.9486C11.1206 18.9548 10.9265 18.9611 10.7512 18.9611C10.0187 18.9611 9.46774 18.8421 9.08582 18.6105C8.71017 18.3788 8.52234 17.9969 8.52234 17.4773C8.52234 17.0014 8.68513 16.6446 9.01695 16.4129C9.34878 16.175 9.88721 16.0561 10.626 16.0561C10.9766 16.0561 11.227 16.0686 11.3898 16.0874C11.3898 15.6616 11.0392 15.4425 10.338 15.4425C10.1063 15.4425 9.88095 15.4675 9.67434 15.5114C9.46774 15.5552 9.29869 15.6178 9.17974 15.6992C9.09834 15.6303 9.02947 15.5364 8.96687 15.4237C8.90426 15.3047 8.87295 15.1858 8.87295 15.0668C8.87295 14.8414 8.99817 14.6661 9.2486 14.5409C9.49904 14.4094 9.88095 14.3468 10.3943 14.3468C11.177 14.3468 11.7717 14.5034 12.1724 14.8164C12.5731 15.1294 12.7735 15.599 12.7735 16.2188V18.8171ZM10.7324 17.9844C10.8764 17.9844 11.0079 17.9844 11.1394 17.9719C11.2709 17.9594 11.3523 17.9531 11.3898 17.9406V17.0265C11.2896 17.014 11.1707 17.0077 11.0455 16.9952C10.9203 16.9889 10.8076 16.9827 10.7136 16.9827C10.4131 16.9827 10.194 17.0265 10.0688 17.1204C9.94356 17.2143 9.88095 17.3395 9.88095 17.5086C9.88095 17.8279 10.1627 17.9907 10.7324 17.9907V17.9844Z" fill="#333333"/>
<path d="M13.4136 14.3348C13.4136 13.7463 13.5701 13.2955 13.8831 12.9887C14.1962 12.6819 14.6532 12.5254 15.248 12.5254C15.4797 12.5254 15.6988 12.5504 15.8929 12.5943C16.087 12.6381 16.2372 12.6944 16.3499 12.757C16.544 12.8697 16.6442 13.0325 16.6442 13.2391C16.6442 13.3643 16.6129 13.4833 16.544 13.5897C16.4751 13.6962 16.3875 13.7838 16.2748 13.8402C16.1997 13.7713 16.0932 13.715 15.943 13.6711C15.799 13.6273 15.6487 13.6023 15.5047 13.6023C15.2793 13.6023 15.1103 13.6649 14.985 13.7838C14.8598 13.9028 14.8035 14.0718 14.8035 14.291V14.4788H15.7551C16.231 14.4788 16.4689 14.6854 16.4689 15.0986C16.4689 15.2113 16.4501 15.3303 16.4188 15.4555C16.3875 15.5807 16.3437 15.6809 16.2998 15.7685H14.8097V18.8551H13.4323V14.3473L13.4136 14.3348Z" fill="#333333"/>
<path d="M18.669 18.9618C18.212 18.9618 17.8113 18.8616 17.4669 18.6675C17.1226 18.4734 16.8533 18.2042 16.6593 17.8599C16.4652 17.5155 16.365 17.1148 16.365 16.6578C16.365 16.2008 16.4652 15.8063 16.6718 15.462C16.8721 15.1176 17.1539 14.8421 17.5045 14.6481C17.8613 14.454 18.262 14.3538 18.7128 14.3538C19.0885 14.3538 19.4266 14.4227 19.7208 14.5479C20.0151 14.6794 20.253 14.8609 20.422 15.0863C20.5911 15.318 20.6787 15.5747 20.6787 15.8689C20.6787 16.3448 20.4909 16.6891 20.1153 16.9082C19.7396 17.1274 19.1386 17.2338 18.3059 17.2338C18.1994 17.2338 18.1055 17.2338 18.0304 17.2338C17.9553 17.2338 17.8864 17.2275 17.8238 17.2213C17.8551 17.3966 17.9803 17.5406 18.1807 17.647C18.3873 17.7534 18.644 17.8098 18.9633 17.8098C19.076 17.8098 19.2074 17.7973 19.3577 17.7722C19.508 17.7472 19.6457 17.7096 19.7834 17.6721C19.9149 17.6282 20.0151 17.5907 20.0777 17.5468L20.5598 18.5048C20.4283 18.5924 20.253 18.6675 20.0401 18.7427C19.8273 18.8115 19.6019 18.8679 19.3577 18.9117C19.1198 18.9493 18.8881 18.9743 18.6627 18.9743L18.669 18.9618ZM18.7003 15.4119C18.4373 15.4119 18.2182 15.4995 18.0367 15.6748C17.8551 15.8501 17.7674 16.0693 17.7674 16.3385C17.8113 16.3385 17.8613 16.3448 17.9114 16.3448H18.0429C18.5125 16.3448 18.8443 16.3009 19.0509 16.2195C19.2513 16.1381 19.3577 16.0129 19.3577 15.8564C19.3577 15.7249 19.2951 15.6185 19.1761 15.5371C19.0572 15.4557 18.9007 15.4119 18.7066 15.4119H18.7003Z" fill="#333333"/>
<path d="M0.983 4.87114C0.983 2.72054 2.7264 0.977141 4.877 0.977141H19.133C21.2836 0.977141 23.027 2.72054 23.027 4.87114V19.1271C23.027 21.2777 21.2836 23.0211 19.133 23.0211H4.877C2.7264 23.0211 0.983 21.2777 0.983 19.1271V4.87114Z" stroke="#333333" stroke-width="1.716"/>
</svg>
