<svg width="32" height="32" viewBox="0 0 32 32" fill="none" xmlns="http://www.w3.org/2000/svg">
<path d="M7.1753 18.7118C7.1753 18.117 7.38817 17.6537 7.82017 17.3156C8.25217 16.9775 8.84696 16.8085 9.59826 16.8085C9.98017 16.8085 10.3496 16.846 10.7064 16.9212C11.0633 16.9963 11.345 17.0965 11.5579 17.2217C11.8334 17.3845 11.9711 17.5848 11.9711 17.8102C11.9711 17.9542 11.921 18.1045 11.8271 18.2735C11.7332 18.4363 11.6205 18.5678 11.489 18.6492C11.3889 18.5427 11.2323 18.4426 11.032 18.3549C10.8317 18.2673 10.6063 18.1921 10.3558 18.142C10.1054 18.0857 9.86122 18.0606 9.61704 18.0606C8.95965 18.0606 8.63409 18.2485 8.63409 18.6241C8.63409 18.7556 8.69043 18.862 8.80313 18.9372C8.91583 19.0123 9.11617 19.0812 9.39165 19.1313L10.2494 19.2878C10.9757 19.413 11.489 19.6196 11.7958 19.9139C12.1026 20.2081 12.2529 20.5963 12.2529 21.0909C12.2529 21.6919 12.0275 22.1615 11.5704 22.4933C11.1134 22.8314 10.4873 23.0005 9.67965 23.0005C9.46052 23.0005 9.22261 22.9817 8.95339 22.9379C8.68417 22.9003 8.42122 22.8439 8.15826 22.7751C7.8953 22.7062 7.66365 22.6311 7.45704 22.5497C7.25043 22.4683 7.10017 22.3806 7 22.2993L7.58852 21.166C7.72626 21.2599 7.91409 21.3476 8.15826 21.429C8.40243 21.5166 8.65913 21.5855 8.94087 21.6356C9.21635 21.6857 9.46678 21.7107 9.69217 21.7107C10.0553 21.7107 10.3245 21.6669 10.4873 21.5793C10.6501 21.4916 10.7377 21.3539 10.7377 21.1598C10.7377 21.0095 10.6751 20.8968 10.5562 20.8154C10.431 20.734 10.2243 20.6652 9.93635 20.6151L9.07861 20.4586C7.80765 20.2332 7.16904 19.6446 7.16904 18.7118H7.1753Z" fill="#333333"/>
<path d="M16.7735 22.8171C16.7109 22.8359 16.6044 22.8484 16.4542 22.8672C16.3039 22.886 16.1286 22.8985 15.9345 22.9173C15.7404 22.9298 15.5338 22.9423 15.3272 22.9486C15.1206 22.9548 14.9265 22.9611 14.7512 22.9611C14.0187 22.9611 13.4677 22.8421 13.0858 22.6105C12.7102 22.3788 12.5223 21.9969 12.5223 21.4773C12.5223 21.0014 12.6851 20.6446 13.017 20.4129C13.3488 20.175 13.8872 20.0561 14.626 20.0561C14.9766 20.0561 15.227 20.0686 15.3898 20.0874C15.3898 19.6616 15.0392 19.4425 14.338 19.4425C14.1063 19.4425 13.881 19.4675 13.6743 19.5114C13.4677 19.5552 13.2987 19.6178 13.1797 19.6992C13.0983 19.6303 13.0295 19.5364 12.9669 19.4237C12.9043 19.3047 12.873 19.1858 12.873 19.0668C12.873 18.8414 12.9982 18.6661 13.2486 18.5409C13.499 18.4094 13.881 18.3468 14.3943 18.3468C15.177 18.3468 15.7717 18.5034 16.1724 18.8164C16.5731 19.1294 16.7735 19.599 16.7735 20.2188V22.8171ZM14.7324 21.9844C14.8764 21.9844 15.0079 21.9844 15.1394 21.9719C15.2709 21.9594 15.3523 21.9531 15.3898 21.9406V21.0265C15.2896 21.014 15.1707 21.0077 15.0455 20.9952C14.9203 20.9889 14.8076 20.9827 14.7136 20.9827C14.4131 20.9827 14.194 21.0265 14.0688 21.1204C13.9436 21.2143 13.881 21.3395 13.881 21.5086C13.881 21.8279 14.1627 21.9907 14.7324 21.9907V21.9844Z" fill="#333333"/>
<path d="M17.4136 18.3348C17.4136 17.7463 17.5701 17.2955 17.8831 16.9887C18.1962 16.6819 18.6532 16.5254 19.248 16.5254C19.4797 16.5254 19.6988 16.5504 19.8929 16.5943C20.087 16.6381 20.2372 16.6944 20.3499 16.757C20.544 16.8697 20.6442 17.0325 20.6442 17.2391C20.6442 17.3643 20.6129 17.4833 20.544 17.5897C20.4751 17.6962 20.3875 17.7838 20.2748 17.8402C20.1997 17.7713 20.0932 17.715 19.943 17.6711C19.799 17.6273 19.6487 17.6023 19.5047 17.6023C19.2793 17.6023 19.1103 17.6649 18.985 17.7838C18.8598 17.9028 18.8035 18.0718 18.8035 18.291V18.4788H19.7551C20.231 18.4788 20.4689 18.6854 20.4689 19.0986C20.4689 19.2113 20.4501 19.3303 20.4188 19.4555C20.3875 19.5807 20.3437 19.6809 20.2998 19.7685H18.8097V22.8551H17.4323V18.3473L17.4136 18.3348Z" fill="#333333"/>
<path d="M22.669 22.9618C22.212 22.9618 21.8113 22.8616 21.4669 22.6675C21.1226 22.4734 20.8533 22.2042 20.6593 21.8599C20.4652 21.5155 20.365 21.1148 20.365 20.6578C20.365 20.2008 20.4652 19.8063 20.6718 19.462C20.8721 19.1176 21.1539 18.8421 21.5045 18.6481C21.8613 18.454 22.262 18.3538 22.7128 18.3538C23.0885 18.3538 23.4266 18.4227 23.7208 18.5479C24.0151 18.6794 24.253 18.8609 24.422 19.0863C24.5911 19.318 24.6787 19.5747 24.6787 19.8689C24.6787 20.3448 24.4909 20.6891 24.1153 20.9082C23.7396 21.1274 23.1386 21.2338 22.3059 21.2338C22.1994 21.2338 22.1055 21.2338 22.0304 21.2338C21.9553 21.2338 21.8864 21.2275 21.8238 21.2213C21.8551 21.3966 21.9803 21.5406 22.1807 21.647C22.3873 21.7534 22.644 21.8098 22.9633 21.8098C23.076 21.8098 23.2074 21.7973 23.3577 21.7722C23.508 21.7472 23.6457 21.7096 23.7834 21.6721C23.9149 21.6282 24.0151 21.5907 24.0777 21.5468L24.5598 22.5048C24.4283 22.5924 24.253 22.6675 24.0401 22.7427C23.8273 22.8115 23.6019 22.8679 23.3577 22.9117C23.1198 22.9493 22.8881 22.9743 22.6627 22.9743L22.669 22.9618ZM22.7003 19.4119C22.4373 19.4119 22.2182 19.4995 22.0367 19.6748C21.8551 19.8501 21.7674 20.0693 21.7674 20.3385C21.8113 20.3385 21.8613 20.3448 21.9114 20.3448H22.0429C22.5125 20.3448 22.8443 20.3009 23.0509 20.2195C23.2513 20.1381 23.3577 20.0129 23.3577 19.8564C23.3577 19.7249 23.2951 19.6185 23.1761 19.5371C23.0572 19.4557 22.9007 19.4119 22.7066 19.4119H22.7003Z" fill="#333333"/>
<path d="M4.983 8.87114C4.983 6.72054 6.7264 4.97714 8.877 4.97714H23.133C25.2836 4.97714 27.027 6.72054 27.027 8.87114V23.1271C27.027 25.2777 25.2836 27.0211 23.133 27.0211H8.877C6.7264 27.0211 4.983 25.2777 4.983 23.1271V8.87114Z" stroke="#333333" stroke-width="1.716"/>
</svg>
