<svg width="24" height="24" viewBox="0 0 24 24" fill="none" xmlns="http://www.w3.org/2000/svg">
<g id="safe/icon/24px/server">
<path id="Vector" d="M6.99996 6.99935H7.00829M6.99996 16.9993H7.00829M5.33329 3.66602H18.6666C19.5871 3.66602 20.3333 4.41221 20.3333 5.33268V8.66602C20.3333 9.58649 19.5871 10.3327 18.6666 10.3327H5.33329C4.41282 10.3327 3.66663 9.58649 3.66663 8.66602V5.33268C3.66663 4.41221 4.41282 3.66602 5.33329 3.66602ZM5.33329 13.666H18.6666C19.5871 13.666 20.3333 14.4122 20.3333 15.3327V18.666C20.3333 19.5865 19.5871 20.3327 18.6666 20.3327H5.33329C4.41282 20.3327 3.66663 19.5865 3.66663 18.666V15.3327C3.66663 14.4122 4.41282 13.666 5.33329 13.666Z" stroke="#333333" stroke-width="1.3" stroke-linecap="round" stroke-linejoin="round"/>
</g>
</svg>
