<svg width="16" height="17" viewBox="0 0 16 17" fill="none" xmlns="http://www.w3.org/2000/svg">
<g id="Icon/16px/Button" clip-path="url(#clip0_1789_674)">
<g id="Vector">
<path fill-rule="evenodd" clip-rule="evenodd" d="M13.6132 5.6122C13.0993 5.6122 12.682 6.05473 12.682 6.60103V10.4641C12.682 11.0104 13.0984 11.453 13.6132 11.453C14.128 11.453 14.5444 11.0104 14.5444 10.4641V6.60103C14.5444 6.05473 14.128 5.6122 13.6132 5.6122ZM2.38424 5.6122C1.87029 5.6122 1.45301 6.05473 1.45301 6.60103V10.4641C1.45301 11.0104 1.86944 11.453 2.38424 11.453C2.89904 11.453 3.31546 11.0104 3.31546 10.4641V6.60103C3.31546 6.05473 2.89904 5.6122 2.38424 5.6122Z" fill="#333333"/>
<path fill-rule="evenodd" clip-rule="evenodd" d="M3.87663 5.64345V12.7019C3.87663 13.1213 4.20145 13.461 4.60261 13.461H5.43206V15.6107C5.43206 16.157 5.84848 16.5995 6.36328 16.5995C6.87809 16.5995 7.29451 16.157 7.29451 15.6107V13.461H8.74308V15.6107C8.74308 16.157 9.1595 16.5995 9.6743 16.5995C10.1891 16.5995 10.6055 16.157 10.6055 15.6107V13.461H11.435C11.8361 13.461 12.161 13.1213 12.161 12.7019V5.64345H3.87663Z" fill="#333333"/>
<path fill-rule="evenodd" clip-rule="evenodd" d="M9.96307 1.98638L10.7281 0.824613C10.7739 0.755439 10.762 0.664981 10.7026 0.622412C10.6433 0.579844 10.5584 0.601128 10.5126 0.670302L9.71797 1.87641C9.19383 1.66091 8.61203 1.5403 7.99885 1.5403C7.38566 1.5403 6.80386 1.66091 6.27973 1.87641L5.4859 0.669415C5.4401 0.600241 5.35529 0.578957 5.29592 0.621525C5.23656 0.664094 5.22553 0.754552 5.27048 0.823726L6.03547 1.98549C4.81928 2.57702 3.96609 3.70154 3.85753 5.01407H12.141C12.0325 3.70154 11.1793 2.57791 9.96307 1.98638ZM6.25259 3.81683C5.99985 3.81683 5.79461 3.60221 5.79461 3.33793C5.79461 3.07365 5.99985 2.85904 6.25259 2.85904C6.50533 2.85904 6.71057 3.07365 6.71057 3.33793C6.71057 3.60221 6.50533 3.81683 6.25259 3.81683ZM9.80447 3.81683C9.55174 3.81683 9.34649 3.60221 9.34649 3.33793C9.34649 3.07365 9.55174 2.85904 9.80447 2.85904C10.0572 2.85904 10.2625 3.07365 10.2625 3.33793C10.2625 3.60221 10.0572 3.81683 9.80447 3.81683Z" fill="#333333"/>
</g>
</g>
<defs>
<clipPath id="clip0_1789_674">
<rect width="16" height="16" fill="white" transform="translate(0 0.599609)"/>
</clipPath>
</defs>
</svg>
