<svg width="17" height="17" viewBox="0 0 17 17" fill="none" xmlns="http://www.w3.org/2000/svg">
<g id="Icon/16px/Button">
<g id="Vector">
<path d="M11.3613 3.16401C11.9122 2.47384 12.2874 1.54622 12.1892 0.599609C11.3803 0.639184 10.3942 1.13307 9.82587 1.82482C9.31299 2.41527 8.85868 3.38246 8.9774 4.2895C9.88444 4.36707 10.7899 3.83519 11.3613 3.16401Z" fill="#333333"/>
<path d="M12.1779 4.46522C10.8609 4.38765 9.74173 5.21238 9.11171 5.21238C8.48169 5.21238 7.51766 4.50637 6.47765 4.52379C5.12105 4.54278 3.86418 5.31052 3.17559 6.5294C1.75883 8.96875 2.80201 12.5858 4.17919 14.5725C4.8472 15.5555 5.65451 16.6366 6.71193 16.5986C7.71553 16.5591 8.10811 15.948 9.32541 15.948C10.5427 15.948 10.8973 16.5986 11.9595 16.5812C13.0612 16.5607 13.7482 15.5982 14.4178 14.6136C15.1824 13.4913 15.4974 12.4117 15.5164 12.3516C15.4974 12.3326 13.3968 11.5252 13.3746 9.10647C13.3556 7.08028 15.0273 6.11942 15.1048 6.05926C14.1614 4.66309 12.686 4.50637 12.1763 4.4668" fill="#333333"/>
</g>
</g>
</svg>
