<svg width="340" height="35" viewBox="0 0 340 35" fill="none" xmlns="http://www.w3.org/2000/svg">
<path d="M17.0005 15.3148C16.0747 13.1957 13.9602 11.7148 11.4999 11.7148C8.18624 11.7148 5.5 14.4011 5.5 17.7147C5.5 21.0284 8.18624 23.7146 11.4999 23.7146C13.9602 23.7146 16.0747 22.2337 17.0005 20.1147" stroke="#333333" stroke-width="1.19998" stroke-linecap="round"/>
<path d="M14.0391 15.5938H17.6111V12.0217" stroke="#333333" stroke-width="1.19998" stroke-linecap="round" stroke-linejoin="round"/>
<path d="M34.776 11.4788V9.18684H31.62V3.83484H32.508V5.73084H37.956V3.83484H38.844V9.18684H35.664V11.4788H39.996V12.2348H30.48V11.4788H34.776ZM37.956 8.45484V6.47484H32.508V8.45484H37.956ZM49.1043 3.07884V6.29484H50.6763V7.03884H49.1043V10.8308H48.2043V3.07884H49.1043ZM41.1843 6.41484C41.1843 5.91884 41.3003 5.47484 41.5323 5.08284C41.7723 4.69084 42.1003 4.38684 42.5163 4.17084C42.9323 3.94684 43.3963 3.83484 43.9083 3.83484C44.4203 3.83484 44.8843 3.94684 45.3003 4.17084C45.7163 4.38684 46.0403 4.69084 46.2723 5.08284C46.5123 5.47484 46.6323 5.91884 46.6323 6.41484C46.6323 6.91084 46.5123 7.35484 46.2723 7.74684C46.0403 8.13884 45.7163 8.44684 45.3003 8.67084C44.8843 8.88684 44.4203 8.99484 43.9083 8.99484C43.3963 8.99484 42.9323 8.88684 42.5163 8.67084C42.1003 8.44684 41.7723 8.13884 41.5323 7.74684C41.3003 7.35484 41.1843 6.91084 41.1843 6.41484ZM42.0603 6.41484C42.0603 6.93484 42.2363 7.36284 42.5883 7.69884C42.9403 8.03484 43.3803 8.20284 43.9083 8.20284C44.4363 8.20284 44.8763 8.03484 45.2283 7.69884C45.5883 7.36284 45.7683 6.93484 45.7683 6.41484C45.7683 6.07084 45.6843 5.76284 45.5163 5.49084C45.3563 5.21884 45.1363 5.00684 44.8563 4.85484C44.5763 4.69484 44.2603 4.61484 43.9083 4.61484C43.3803 4.61484 42.9403 4.78684 42.5883 5.13084C42.2363 5.46684 42.0603 5.89484 42.0603 6.41484ZM42.6003 10.0388H43.4883V12.6068H49.5963V13.3508H42.6003V10.0388ZM60.4142 4.17084V4.92684H57.9182V6.34284C57.9182 6.91884 58.0462 7.49484 58.3022 8.07084C58.5662 8.63884 58.9142 9.14684 59.3462 9.59484C59.7782 10.0348 60.2462 10.3668 60.7502 10.5908L60.2342 11.3108C59.6262 11.0228 59.0742 10.5908 58.5782 10.0148C58.0822 9.43884 57.7142 8.79084 57.4742 8.07084C57.2342 8.84684 56.8662 9.54684 56.3702 10.1708C55.8822 10.7948 55.3382 11.2588 54.7382 11.5628L54.2222 10.8548C54.7102 10.6148 55.1702 10.2548 55.6022 9.77484C56.0342 9.28684 56.3782 8.73884 56.6342 8.13084C56.8902 7.52284 57.0182 6.92684 57.0182 6.34284V4.92684H54.5462V4.17084H60.4142ZM61.8782 3.09084H62.7782V13.5908H61.8782V3.09084ZM73.3265 3.10284V10.8548H72.4265V7.99884H69.7385C69.4985 8.31084 69.1905 8.55484 68.8145 8.73084C68.4385 8.90684 68.0225 8.99484 67.5665 8.99484C67.0545 8.99484 66.5945 8.88684 66.1865 8.67084C65.7785 8.44684 65.4585 8.13884 65.2265 7.74684C64.9945 7.34684 64.8785 6.89484 64.8785 6.39084C64.8785 5.87884 64.9945 5.42684 65.2265 5.03484C65.4585 4.63484 65.7785 4.32284 66.1865 4.09884C66.5945 3.87484 67.0545 3.76284 67.5665 3.76284C68.0145 3.76284 68.4225 3.85084 68.7905 4.02684C69.1665 4.19484 69.4745 4.43484 69.7145 4.74684H72.4265V3.10284H73.3265ZM65.7305 6.39084C65.7305 6.91884 65.9025 7.35484 66.2465 7.69884C66.5985 8.04284 67.0385 8.21484 67.5665 8.21484C67.9105 8.21484 68.2225 8.13884 68.5025 7.98684C68.7825 7.82684 69.0025 7.61084 69.1625 7.33884C69.3225 7.05884 69.4025 6.74284 69.4025 6.39084C69.4025 6.03884 69.3225 5.72684 69.1625 5.45484C69.0025 5.17484 68.7825 4.95884 68.5025 4.80684C68.2225 4.64684 67.9105 4.56684 67.5665 4.56684C67.0385 4.56684 66.5985 4.73884 66.2465 5.08284C65.9025 5.42684 65.7305 5.86284 65.7305 6.39084ZM66.6425 10.0508H67.5425V12.6068H73.6265V13.3508H66.6425V10.0508ZM70.1225 5.49084C70.2185 5.76284 70.2665 6.06284 70.2665 6.39084C70.2665 6.68684 70.2225 6.97484 70.1345 7.25484H72.4265V5.49084H70.1225ZM81.6364 4.01484V5.92284C81.6364 6.54684 81.7644 7.16684 82.0204 7.78284C82.2764 8.39084 82.6204 8.93484 83.0524 9.41484C83.4844 9.89484 83.9524 10.2508 84.4564 10.4828L83.9164 11.2028C83.3164 10.9068 82.7764 10.4628 82.2964 9.87084C81.8164 9.27084 81.4524 8.59484 81.2044 7.84284C80.9644 8.64284 80.6004 9.35884 80.1124 9.99084C79.6244 10.6228 79.0724 11.0908 78.4564 11.3948L77.9044 10.6508C78.4084 10.4108 78.8764 10.0428 79.3084 9.54684C79.7484 9.05084 80.0964 8.48684 80.3524 7.85484C80.6084 7.21484 80.7364 6.57084 80.7364 5.92284V4.01484H81.6364ZM85.6204 3.07884H86.5204V13.6028H85.6204V3.07884ZM94.3207 3.83484V4.57884H91.9687V5.03484C91.9687 5.73884 92.2047 6.38684 92.6767 6.97884C93.1487 7.56284 93.7687 7.98684 94.5367 8.25084L94.0687 8.97084C93.4847 8.76284 92.9727 8.45084 92.5327 8.03484C92.0927 7.61884 91.7607 7.13484 91.5367 6.58284C91.3127 7.18284 90.9727 7.70684 90.5167 8.15484C90.0607 8.60284 89.5247 8.94284 88.9087 9.17484L88.4167 8.46684C89.2087 8.18684 89.8487 7.73484 90.3367 7.11084C90.8327 6.48684 91.0807 5.79884 91.0807 5.04684V4.57884H88.7047V3.83484H94.3207ZM89.7967 9.99084H96.5887V13.5908H95.6887V10.7228H89.7967V9.99084ZM95.6887 3.09084H96.5887V5.88684H98.1607V6.64284H96.5887V9.40284H95.6887V3.09084ZM104.491 12.7148H103.627V5.04684L102.283 5.98284L101.803 5.32284L103.627 4.06284H104.491V12.7148ZM109.855 4.01484V5.92284C109.855 6.54684 109.983 7.16684 110.239 7.78284C110.495 8.39084 110.839 8.93484 111.271 9.41484C111.703 9.89484 112.171 10.2508 112.675 10.4828L112.135 11.2028C111.535 10.9068 110.995 10.4628 110.515 9.87084C110.035 9.27084 109.671 8.59484 109.423 7.84284C109.183 8.64284 108.819 9.35884 108.331 9.99084C107.843 10.6228 107.291 11.0908 106.675 11.3948L106.123 10.6508C106.627 10.4108 107.095 10.0428 107.527 9.54684C107.967 9.05084 108.315 8.48684 108.571 7.85484C108.827 7.21484 108.955 6.57084 108.955 5.92284V4.01484H109.855ZM113.839 3.07884H114.739V13.6028H113.839V3.07884ZM124.807 3.09084V6.29484H126.379V7.05084H124.807V10.7708H123.907V3.09084H124.807ZM116.695 8.82684C117.959 8.43484 118.971 7.87484 119.731 7.14684C120.499 6.41884 120.931 5.58684 121.027 4.65084H117.127V3.90684H121.999C121.999 5.23484 121.563 6.38684 120.691 7.36284C119.819 8.33884 118.615 9.07084 117.079 9.55884L116.695 8.82684ZM118.291 9.99084H119.191V12.6068H125.287V13.3508H118.291V9.99084ZM134.221 4.30284V3.01884H135.109V4.30284H138.865V5.03484H130.429V4.30284H134.221ZM129.925 9.90684H139.441V10.6388H135.109V13.6028H134.221V10.6388H129.925V9.90684ZM131.281 7.41084C131.281 6.85084 131.577 6.41884 132.169 6.11484C132.761 5.81084 133.593 5.65884 134.665 5.65884C135.737 5.65884 136.569 5.81084 137.161 6.11484C137.753 6.41884 138.049 6.85084 138.049 7.41084C138.049 7.96284 137.749 8.39084 137.149 8.69484C136.557 8.99884 135.729 9.15084 134.665 9.15084C133.601 9.15084 132.769 8.99884 132.169 8.69484C131.577 8.39084 131.281 7.96284 131.281 7.41084ZM132.205 7.41084C132.205 7.73884 132.421 7.99484 132.853 8.17884C133.285 8.36284 133.889 8.45484 134.665 8.45484C135.441 8.45484 136.045 8.36284 136.477 8.17884C136.909 7.99484 137.125 7.73884 137.125 7.41084C137.125 7.07484 136.909 6.81484 136.477 6.63084C136.045 6.43884 135.441 6.34284 134.665 6.34284C133.889 6.34284 133.285 6.43884 132.853 6.63084C132.421 6.81484 132.205 7.07484 132.205 7.41084ZM151.447 3.58284V4.47084C151.447 5.03884 151.431 5.52684 151.399 5.93484C151.367 6.33484 151.291 6.77484 151.171 7.25484L150.283 7.14684C150.403 6.67484 150.479 6.24684 150.511 5.86284C150.543 5.47084 150.559 5.00684 150.559 4.47084V4.30284H144.319V3.58284H151.447ZM143.191 7.86684H147.127V5.88684H148.015V7.86684H152.659V8.59884H143.191V7.86684ZM144.379 9.78684H151.435V10.5308H145.279V12.7028H151.591V13.4468H144.379V9.78684ZM161.732 3.09084V7.24284H163.472V8.01084H161.732V13.5908H160.832V3.09084H161.732ZM154.112 3.99084H155V6.77484H158.096V3.99084H158.984V11.0588H154.112V3.99084ZM158.096 10.3148V7.49484H155V10.3148H158.096ZM168.452 11.5268V9.51084H165.356V6.29484H171.596V4.60284H165.332V3.87084H172.484V7.01484H166.244V8.77884H172.724V9.51084H169.34V11.5268H173.672V12.2708H164.156V11.5268H168.452ZM179.558 4.91484V3.39084H180.446V4.91484H182.606V5.64684H177.386V4.91484H179.558ZM177.758 8.75484C177.758 8.29884 177.854 7.89084 178.046 7.53084C178.238 7.17084 178.502 6.89084 178.838 6.69084C179.182 6.48284 179.57 6.37884 180.002 6.37884C180.434 6.37884 180.822 6.48284 181.166 6.69084C181.51 6.89084 181.778 7.17084 181.97 7.53084C182.162 7.89084 182.258 8.29884 182.258 8.75484C182.258 9.21884 182.162 9.63484 181.97 10.0028C181.778 10.3628 181.51 10.6428 181.166 10.8428C180.822 11.0428 180.434 11.1428 180.002 11.1428C179.57 11.1428 179.182 11.0428 178.838 10.8428C178.502 10.6428 178.238 10.3628 178.046 10.0028C177.854 9.63484 177.758 9.21884 177.758 8.75484ZM178.562 8.75484C178.562 9.22684 178.694 9.61484 178.958 9.91884C179.23 10.2228 179.578 10.3748 180.002 10.3748C180.426 10.3748 180.774 10.2228 181.046 9.91884C181.318 9.61484 181.454 9.22684 181.454 8.75484C181.454 8.28284 181.314 7.89484 181.034 7.59084C180.762 7.28684 180.418 7.13484 180.002 7.13484C179.586 7.13484 179.242 7.28684 178.97 7.59084C178.698 7.89484 178.562 8.28284 178.562 8.75484ZM183.158 3.34284H184.01V7.53084H185.414V3.09084H186.266V13.5908H185.414V8.27484H184.01V13.0628H183.158V3.34284ZM196.79 3.09084V13.5908H195.926V3.09084H196.79ZM187.778 10.8068C188.482 10.3748 189.038 9.72684 189.446 8.86284C189.862 7.99084 190.07 7.06284 190.07 6.07884V5.08284H188.042V4.33884H192.854V5.08284H190.946V6.07884C190.946 7.01484 191.146 7.89484 191.546 8.71884C191.946 9.54284 192.494 10.1588 193.19 10.5668L192.638 11.2268C192.134 10.9228 191.702 10.5028 191.342 9.96684C190.982 9.42284 190.706 8.80684 190.514 8.11884C190.33 8.85484 190.05 9.51884 189.674 10.1108C189.298 10.6948 188.85 11.1508 188.33 11.4788L187.778 10.8068ZM192.05 6.88284H193.826V3.34284H194.666V13.0388H193.826V7.62684H192.05V6.88284ZM200.534 4.91484V3.39084H201.422V4.91484H203.582V5.64684H198.362V4.91484H200.534ZM198.734 8.75484C198.734 8.29884 198.83 7.89084 199.022 7.53084C199.214 7.17084 199.478 6.89084 199.814 6.69084C200.158 6.48284 200.546 6.37884 200.978 6.37884C201.41 6.37884 201.798 6.48284 202.142 6.69084C202.486 6.89084 202.754 7.17084 202.946 7.53084C203.138 7.89084 203.234 8.29884 203.234 8.75484C203.234 9.21884 203.138 9.63484 202.946 10.0028C202.754 10.3628 202.486 10.6428 202.142 10.8428C201.798 11.0428 201.41 11.1428 200.978 11.1428C200.546 11.1428 200.158 11.0428 199.814 10.8428C199.478 10.6428 199.214 10.3628 199.022 10.0028C198.83 9.63484 198.734 9.21884 198.734 8.75484ZM199.538 8.75484C199.538 9.22684 199.67 9.61484 199.934 9.91884C200.206 10.2228 200.554 10.3748 200.978 10.3748C201.402 10.3748 201.75 10.2228 202.022 9.91884C202.294 9.61484 202.43 9.22684 202.43 8.75484C202.43 8.28284 202.29 7.89484 202.01 7.59084C201.738 7.28684 201.394 7.13484 200.978 7.13484C200.562 7.13484 200.218 7.28684 199.946 7.59084C199.674 7.89484 199.538 8.28284 199.538 8.75484ZM204.134 3.34284H204.986V7.53084H206.39V3.09084H207.242V13.5908H206.39V8.27484H204.986V13.0628H204.134V3.34284ZM221.132 9.10284V9.84684H216.812V13.5908H215.924V9.84684H211.64V9.10284H221.132ZM212.216 7.45884C212.824 7.37084 213.408 7.18684 213.968 6.90684C214.536 6.62684 214.996 6.28284 215.348 5.87484C215.708 5.46684 215.888 5.03484 215.888 4.57884V4.49484H212.54V3.76284H220.208V4.49484H216.884V4.57884C216.884 5.03484 217.06 5.46684 217.412 5.87484C217.772 6.28284 218.232 6.62684 218.792 6.90684C219.36 7.18684 219.948 7.37084 220.556 7.45884L220.208 8.19084C219.376 8.04684 218.608 7.75884 217.904 7.32684C217.2 6.89484 216.696 6.37084 216.392 5.75484C216.088 6.37084 215.58 6.89484 214.868 7.32684C214.164 7.75884 213.396 8.04684 212.564 8.19084L212.216 7.45884ZM228.032 6.87084V3.33084H228.872V13.0508H228.032V7.62684H226.256V6.87084H228.032ZM222.008 10.6388C222.472 10.3668 222.88 9.99084 223.232 9.51084C223.584 9.03084 223.856 8.49484 224.048 7.90284C224.24 7.31084 224.336 6.71484 224.336 6.11484V4.09884H225.2V6.09084C225.2 6.94684 225.4 7.77484 225.8 8.57484C226.2 9.37484 226.736 9.97884 227.408 10.3868L226.88 11.0828C226.392 10.7948 225.968 10.3868 225.608 9.85884C225.248 9.32284 224.972 8.72684 224.78 8.07084C224.588 8.78284 224.3 9.42284 223.916 9.99084C223.532 10.5588 223.084 10.9988 222.572 11.3108L222.008 10.6388ZM230.168 3.09084H231.032V13.5908H230.168V3.09084ZM234.981 11.4788V8.61084C234.533 8.37884 234.181 8.07884 233.925 7.71084C233.677 7.33484 233.553 6.91484 233.553 6.45084C233.553 5.91484 233.713 5.44284 234.033 5.03484C234.361 4.62684 234.813 4.31484 235.389 4.09884C235.965 3.87484 236.621 3.76284 237.357 3.76284C238.093 3.76284 238.749 3.87484 239.325 4.09884C239.901 4.31484 240.349 4.62684 240.669 5.03484C240.997 5.44284 241.161 5.91484 241.161 6.45084C241.161 6.90684 241.037 7.31884 240.789 7.68684C240.549 8.05484 240.209 8.35884 239.769 8.59884V11.4788H242.133V12.2228H232.617V11.4788H234.981ZM234.429 6.45084C234.429 6.84284 234.553 7.18684 234.801 7.48284C235.049 7.77884 235.393 8.01084 235.833 8.17884C236.281 8.33884 236.789 8.41884 237.357 8.41884C237.925 8.41884 238.429 8.33884 238.869 8.17884C239.317 8.01084 239.665 7.77884 239.913 7.48284C240.169 7.18684 240.297 6.84284 240.297 6.45084C240.297 6.05884 240.169 5.71484 239.913 5.41884C239.665 5.12284 239.317 4.89484 238.869 4.73484C238.429 4.56684 237.925 4.48284 237.357 4.48284C236.789 4.48284 236.281 4.56684 235.833 4.73484C235.393 4.89484 235.049 5.12284 234.801 5.41884C234.553 5.71484 234.429 6.05884 234.429 6.45084ZM238.869 11.4788V8.94684C238.413 9.06684 237.909 9.12684 237.357 9.12684C236.821 9.12684 236.325 9.06684 235.869 8.94684V11.4788H238.869ZM243.981 11.6708C244.157 11.6708 244.297 11.7268 244.401 11.8388C244.513 11.9428 244.569 12.0828 244.569 12.2588C244.569 12.4428 244.513 12.5908 244.401 12.7028C244.297 12.8148 244.157 12.8708 243.981 12.8708C243.805 12.8708 243.657 12.8148 243.537 12.7028C243.425 12.5828 243.369 12.4348 243.369 12.2588C243.369 12.0828 243.425 11.9428 243.537 11.8388C243.649 11.7268 243.797 11.6708 243.981 11.6708ZM31.656 28.9388C31.384 28.0108 31.248 27.1588 31.248 26.3828C31.248 25.6068 31.384 24.7548 31.656 23.8268C31.936 22.8988 32.292 22.0908 32.724 21.4028H34.068C33.58 22.0828 33.18 22.8868 32.868 23.8148C32.556 24.7428 32.4 25.5988 32.4 26.3828C32.4 27.1668 32.556 28.0228 32.868 28.9508C33.18 29.8788 33.58 30.6828 34.068 31.3628H32.724C32.292 30.6748 31.936 29.8668 31.656 28.9388ZM38.2476 21.3428C38.7836 21.3428 39.2676 21.4468 39.6996 21.6548C40.1316 21.8548 40.4676 22.1388 40.7076 22.5068C40.9556 22.8748 41.0796 23.2908 41.0796 23.7548C41.0796 24.2188 40.9556 24.6348 40.7076 25.0028C40.4676 25.3628 40.1316 25.6468 39.6996 25.8548C39.2676 26.0548 38.7836 26.1548 38.2476 26.1548C37.7196 26.1548 37.2396 26.0548 36.8076 25.8548C36.3836 25.6468 36.0476 25.3628 35.7996 25.0028C35.5596 24.6348 35.4396 24.2188 35.4396 23.7548C35.4396 23.2908 35.5596 22.8748 35.7996 22.5068C36.0476 22.1388 36.3836 21.8548 36.8076 21.6548C37.2396 21.4468 37.7196 21.3428 38.2476 21.3428ZM36.7116 23.7548C36.7116 24.1628 36.8556 24.4868 37.1436 24.7268C37.4316 24.9668 37.7996 25.0868 38.2476 25.0868C38.7036 25.0868 39.0756 24.9668 39.3636 24.7268C39.6516 24.4868 39.7956 24.1628 39.7956 23.7548C39.7956 23.3468 39.6516 23.0228 39.3636 22.7828C39.0756 22.5348 38.7036 22.4108 38.2476 22.4108C37.7996 22.4108 37.4316 22.5348 37.1436 22.7828C36.8556 23.0228 36.7116 23.3468 36.7116 23.7548ZM37.0476 26.8628H44.0796V29.6588H38.3556V30.5228H44.3796V31.5548H37.0716V28.6988H42.7716V27.8828H37.0476V26.8628ZM42.7596 21.0068H44.0796V26.3948H42.7596V21.0068ZM53.2958 23.6588V21.0068H54.6158V27.3428H53.2958V24.7268H51.4838V23.6588H53.2958ZM45.7238 26.2748C46.5398 25.9868 47.1718 25.5268 47.6198 24.8948C48.0758 24.2548 48.3038 23.5628 48.3038 22.8188V22.7588H46.0838V21.7028H51.8198V22.7588H49.6358V22.8188C49.6358 23.4988 49.8518 24.1308 50.2838 24.7148C50.7158 25.2988 51.3278 25.7268 52.1198 25.9988L51.4598 27.0308C50.8838 26.8308 50.3878 26.5428 49.9718 26.1668C49.5558 25.7828 49.2318 25.3308 48.9998 24.8108C48.7598 25.3948 48.4158 25.9068 47.9678 26.3468C47.5278 26.7788 46.9998 27.1028 46.3838 27.3188L45.7238 26.2748ZM47.4158 29.6588C47.4158 29.0268 47.7398 28.5308 48.3878 28.1708C49.0358 27.8028 49.9198 27.6188 51.0398 27.6188C52.1598 27.6188 53.0398 27.8028 53.6798 28.1708C54.3278 28.5308 54.6518 29.0268 54.6518 29.6588C54.6518 30.2988 54.3278 30.7948 53.6798 31.1468C53.0398 31.5068 52.1598 31.6868 51.0398 31.6868C49.9118 31.6868 49.0238 31.5068 48.3758 31.1468C47.7358 30.7948 47.4158 30.2988 47.4158 29.6588ZM48.7358 29.6588C48.7358 29.9868 48.9358 30.2388 49.3358 30.4148C49.7358 30.5908 50.3038 30.6788 51.0398 30.6788C51.7758 30.6788 52.3438 30.5908 52.7438 30.4148C53.1438 30.2388 53.3438 29.9868 53.3438 29.6588C53.3438 29.3228 53.1438 29.0668 52.7438 28.8908C52.3438 28.7148 51.7758 28.6268 51.0398 28.6268C50.2958 28.6268 49.7238 28.7148 49.3238 28.8908C48.9318 29.0668 48.7358 29.3228 48.7358 29.6588ZM62.9978 21.8708V23.5508C62.9978 24.2148 63.1058 24.8588 63.3218 25.4828C63.5378 26.1068 63.8498 26.6628 64.2578 27.1508C64.6738 27.6308 65.1618 27.9948 65.7218 28.2428L64.9538 29.3108C64.3458 29.0308 63.8218 28.6228 63.3818 28.0868C62.9418 27.5428 62.5978 26.9148 62.3498 26.2028C62.1018 26.9708 61.7498 27.6468 61.2938 28.2308C60.8458 28.8068 60.3058 29.2428 59.6738 29.5388L58.8818 28.4468C59.4498 28.1908 59.9418 27.8108 60.3577 27.3068C60.7818 26.8028 61.1058 26.2268 61.3298 25.5788C61.5538 24.9228 61.6658 24.2468 61.6658 23.5508V21.8708H62.9978ZM66.4778 20.9828H67.7978V31.6988H66.4778V20.9828ZM77.842 21.0068V24.0788H79.33V25.1588H77.842V28.6988H76.522V21.0068H77.842ZM69.442 26.5508C70.65 26.1988 71.606 25.7028 72.31 25.0628C73.022 24.4228 73.434 23.6908 73.546 22.8668H69.898V21.8108H74.974C74.974 23.2188 74.542 24.4188 73.678 25.4108C72.814 26.4028 71.586 27.1308 69.994 27.5948L69.442 26.5508ZM71.038 27.9188H72.358V30.4148H78.25V31.4708H71.038V27.9188ZM88.7863 20.9828V31.6988H87.4543V20.9828H88.7863ZM80.3023 25.5428C80.3023 24.7828 80.4183 24.1188 80.6503 23.5508C80.8903 22.9748 81.2183 22.5348 81.6343 22.2308C82.0583 21.9188 82.5383 21.7628 83.0743 21.7628C83.6103 21.7628 84.0863 21.9188 84.5023 22.2308C84.9263 22.5348 85.2543 22.9748 85.4863 23.5508C85.7263 24.1188 85.8463 24.7828 85.8463 25.5428C85.8463 26.3028 85.7263 26.9708 85.4863 27.5468C85.2543 28.1228 84.9263 28.5668 84.5023 28.8788C84.0863 29.1828 83.6103 29.3348 83.0743 29.3348C82.5383 29.3348 82.0583 29.1828 81.6343 28.8788C81.2183 28.5668 80.8903 28.1228 80.6503 27.5468C80.4183 26.9708 80.3023 26.3028 80.3023 25.5428ZM81.5743 25.5428C81.5743 26.3508 81.7103 26.9868 81.9823 27.4508C82.2623 27.9148 82.6263 28.1468 83.0743 28.1468C83.5223 28.1468 83.8823 27.9148 84.1543 27.4508C84.4343 26.9868 84.5743 26.3508 84.5743 25.5428C84.5743 24.7428 84.4343 24.1148 84.1543 23.6588C83.8823 23.1948 83.5223 22.9628 83.0743 22.9628C82.6263 22.9628 82.2623 23.1948 81.9823 23.6588C81.7103 24.1148 81.5743 24.7428 81.5743 25.5428ZM99.5442 22.0508V23.1428H97.2162V24.0308C97.2162 24.6228 97.3242 25.2068 97.5402 25.7828C97.7642 26.3508 98.0802 26.8628 98.4882 27.3188C98.9042 27.7748 99.3882 28.1188 99.9402 28.3508L99.2082 29.3948C98.6002 29.1228 98.0682 28.7268 97.6122 28.2068C97.1642 27.6788 96.8162 27.0668 96.5682 26.3708C96.3202 27.1228 95.9682 27.7868 95.5122 28.3628C95.0562 28.9388 94.5242 29.3708 93.9162 29.6588L93.1602 28.6148C93.7122 28.3588 94.1922 27.9908 94.6002 27.5108C95.0162 27.0228 95.3322 26.4748 95.5482 25.8668C95.7722 25.2588 95.8842 24.6468 95.8842 24.0308V23.1428H93.5562V22.0508H99.5442ZM100.708 21.0068H102.028V31.6868H100.708V21.0068ZM112.037 20.9828V25.1228H113.597V26.2148H112.037V31.6748H110.705V20.9828H112.037ZM104.093 22.0268H105.401V27.9428C106.961 27.9188 108.461 27.7628 109.901 27.4748L110.045 28.5548C108.549 28.8668 106.861 29.0228 104.981 29.0228H104.093V22.0268ZM119.645 21.8828V22.7588H121.757V21.0068H123.077V28.7828H121.757V26.1068H119.645V27.0188H114.665V21.8828H119.645ZM118.349 25.9748V22.9268H115.961V25.9748H118.349ZM116.093 28.0628H117.413V30.4148H123.317V31.4708H116.093V28.0628ZM121.757 25.0508V23.8148H119.645V25.0508H121.757ZM135.779 20.9828V25.0388H137.399V26.1308H135.779V31.6988H134.447V20.9828H135.779ZM127.895 22.0148H132.875V23.0708H129.215V27.9908C130.111 27.9828 130.895 27.9548 131.567 27.9068C132.247 27.8588 132.931 27.7708 133.619 27.6428L133.751 28.7468C132.999 28.8828 132.247 28.9748 131.495 29.0228C130.751 29.0708 129.843 29.0948 128.771 29.0948H127.895V22.0148ZM141.947 21.8708V23.5508C141.947 24.2148 142.055 24.8588 142.271 25.4828C142.487 26.1068 142.799 26.6628 143.207 27.1508C143.623 27.6308 144.111 27.9948 144.671 28.2428L143.903 29.3108C143.295 29.0308 142.771 28.6228 142.331 28.0868C141.891 27.5428 141.547 26.9148 141.299 26.2028C141.051 26.9708 140.699 27.6468 140.243 28.2308C139.795 28.8068 139.255 29.2428 138.623 29.5388L137.831 28.4468C138.399 28.1908 138.891 27.8108 139.307 27.3068C139.731 26.8028 140.055 26.2268 140.279 25.5788C140.503 24.9228 140.615 24.2468 140.615 23.5508V21.8708H141.947ZM145.427 20.9828H146.747V31.6988H145.427V20.9828ZM154.637 30.7508L153.365 30.7388V23.3828L151.829 24.2348L151.301 23.1668L153.377 22.0268H154.637V30.7508ZM160.217 21.8708V23.5508C160.217 24.2148 160.325 24.8588 160.541 25.4828C160.757 26.1068 161.069 26.6628 161.477 27.1508C161.893 27.6308 162.381 27.9948 162.941 28.2428L162.173 29.3108C161.565 29.0308 161.041 28.6228 160.601 28.0868C160.161 27.5428 159.817 26.9148 159.569 26.2028C159.321 26.9708 158.969 27.6468 158.513 28.2308C158.065 28.8068 157.525 29.2428 156.893 29.5388L156.101 28.4468C156.669 28.1908 157.161 27.8108 157.576 27.3068C158.001 26.8028 158.325 26.2268 158.549 25.5788C158.773 24.9228 158.885 24.2468 158.885 23.5508V21.8708H160.217ZM163.697 20.9828H165.017V31.6988H163.697V20.9828ZM175.061 21.0068V24.0788H176.549V25.1588H175.061V28.6988H173.741V21.0068H175.061ZM166.661 26.5508C167.869 26.1988 168.825 25.7028 169.529 25.0628C170.241 24.4228 170.653 23.6908 170.765 22.8668H167.117V21.8108H172.193C172.193 23.2188 171.761 24.4188 170.897 25.4108C170.033 26.4028 168.805 27.1308 167.213 27.5948L166.661 26.5508ZM168.257 27.9188H169.577V30.4148H175.469V31.4708H168.257V27.9188ZM189.083 20.9948V31.6748H187.823V26.2508H186.659V31.1468H185.435V21.2108H186.659V25.1708H187.823V20.9948H189.083ZM180.299 22.2668H184.235V23.3348H181.595V28.0988C182.763 28.0828 183.819 27.9868 184.763 27.8108L184.883 28.8908C184.275 29.0108 183.679 29.0908 183.095 29.1308C182.511 29.1708 181.819 29.1908 181.019 29.1908H180.299V22.2668ZM199.283 20.9948V31.6748H197.963V20.9948H199.283ZM190.511 28.7588C191.871 28.1028 192.891 27.3188 193.571 26.4068C194.251 25.4948 194.651 24.4188 194.771 23.1788H191.039V22.1108H196.127C196.127 23.8228 195.747 25.3188 194.987 26.5988C194.227 27.8788 192.963 28.9468 191.195 29.8028L190.511 28.7588ZM212.549 21.0068V26.5028H211.217V21.0068H212.549ZM205.085 25.1828V22.6988H204.161V21.6668H209.909V22.6988H208.985V25.0268C209.321 25.0028 209.777 24.9588 210.353 24.8948L210.425 25.8308C209.481 25.9828 208.481 26.0868 207.425 26.1428C206.369 26.1988 205.233 26.2308 204.017 26.2388L203.885 25.1828H205.085ZM205.421 26.9588H212.549V29.7188H206.741V30.5588H212.885V31.5908H205.445V28.7708H211.241V27.9788H205.421V26.9588ZM207.713 25.1108V22.6988H206.357V25.1588L207.713 25.1108ZM216.413 29.3108V26.5868C215.981 26.3388 215.649 26.0268 215.417 25.6508C215.185 25.2748 215.069 24.8548 215.069 24.3908C215.069 23.8308 215.237 23.3388 215.573 22.9148C215.917 22.4828 216.385 22.1508 216.977 21.9188C217.577 21.6868 218.257 21.5708 219.017 21.5708C219.777 21.5708 220.457 21.6868 221.057 21.9188C221.657 22.1508 222.125 22.4828 222.461 22.9148C222.797 23.3388 222.965 23.8308 222.965 24.3908C222.965 24.8548 222.849 25.2748 222.617 25.6508C222.385 26.0268 222.057 26.3388 221.633 26.5868V29.3108H223.865V30.3788H214.193V29.3108H216.413ZM216.365 24.3908C216.365 24.9428 216.605 25.3788 217.085 25.6988C217.573 26.0188 218.217 26.1788 219.017 26.1788C219.817 26.1788 220.457 26.0188 220.937 25.6988C221.425 25.3788 221.669 24.9428 221.669 24.3908C221.669 23.8468 221.425 23.4148 220.937 23.0948C220.449 22.7668 219.809 22.6028 219.017 22.6028C218.225 22.6028 217.585 22.7668 217.097 23.0948C216.609 23.4148 216.365 23.8468 216.365 24.3908ZM220.313 29.3108V27.0788C219.897 27.1668 219.465 27.2108 219.017 27.2108C218.577 27.2108 218.149 27.1668 217.733 27.0788V29.3108H220.313ZM227.453 23.8268C227.725 24.7548 227.861 25.6068 227.861 26.3828C227.861 27.1588 227.725 28.0108 227.453 28.9388C227.181 29.8668 226.829 30.6748 226.397 31.3628H225.053C225.541 30.6908 225.937 29.8908 226.241 28.9628C226.553 28.0268 226.709 27.1668 226.709 26.3828C226.709 25.5988 226.553 24.7428 226.241 23.8148C225.937 22.8788 225.541 22.0748 225.053 21.4028H226.397C226.829 22.0908 227.181 22.8988 227.453 23.8268Z" fill="black"/>
</svg>
